<svg width="100" height="100" viewBox="0 0 100 100" fill="none" xmlns="http://www.w3.org/2000/svg">
<path d="M62.0308 63.5217L55.8969 68.7627L51.9603 66.3861L53.3349 60.5378L62.0308 60.1443V63.5217Z" fill="#FDC360"/>
<path d="M29.6148 35.5704L61.5261 30.9116C75.6702 29.3504 86.7988 35.6865 89.9435 51.1764C90.7588 58.6689 82.6062 63.5217 74.8032 63.5217H52.2853C50.3059 63.5217 48.3388 63.2094 46.4563 62.5964L35.8668 59.1469C34.5743 58.7259 33.324 58.1855 32.1317 57.5331L18.0257 49.8146C16.4107 48.9308 15.4062 47.2366 15.4062 45.3955V28H20.31C22.2922 28 24.1694 28.8916 25.4217 30.4279L29.6148 35.5704Z" fill="#FDC360"/>
<path d="M70.1665 48.838H44.3685C43.5155 48.838 42.685 49.0834 41.999 49.5384L33.8463 54.9444C33.0245 55.4893 34.0047 56.1848 35.5947 56.1848H45.6262C46.5482 56.1848 47.4513 56.081 48.2329 55.8852L70.3955 50.3365C71.3486 50.0977 71.1562 48.838 70.1665 48.838Z" fill="#F30A07"/>
<path d="M31.4349 45.1829H16.3336C15.8342 45.1829 15.348 45.3265 14.9463 45.5928L10.1739 48.7572C9.69296 49.076 10.2666 49.4831 11.1972 49.4831H17.0693C17.6088 49.4831 18.1377 49.4223 18.5952 49.3078L31.5683 46.0598C32.1267 45.9203 32.0143 45.1829 31.4349 45.1829Z" fill="#F30A07"/>
<path d="M74.9132 32.1779L73.466 34.1946C72.9239 34.95 72.8246 35.9368 73.2062 36.7849L77.0501 45.336C77.5962 46.5513 78.805 47.333 80.1373 47.333H88.9424C86.1354 39.1693 81.3264 34.3386 74.9132 32.1779Z" fill="#9FD2FE"/>
<path d="M89.3518 48.9069H80.1372C78.1886 48.9069 76.4136 47.7585 75.6147 45.981L71.7708 37.4295C71.1619 36.0751 71.3211 34.4838 72.1873 33.2767L73.3768 31.6198L73.7104 31.859L72.5209 33.5159C71.7401 34.6045 71.596 36.0398 72.1455 37.2613L75.9893 45.8127C76.7217 47.4433 78.3503 48.4966 80.1372 48.4966H89.3518V48.9069Z" fill="#E8972D"/>
<path d="M45.3616 41.7744C45.3616 43.2712 44.1483 44.4845 42.6514 44.4845C41.1546 44.4845 39.9413 43.2712 39.9413 41.7744C39.9413 40.2775 41.1546 39.0638 42.6514 39.0638C44.1483 39.0638 45.3616 40.2775 45.3616 41.7744Z" fill="#392960"/>
<path d="M42.6514 45.8156C40.4229 45.8156 38.6097 44.0028 38.6097 41.7744C38.6097 39.546 40.4229 37.7328 42.6514 37.7328C44.8798 37.7328 46.6926 39.546 46.6926 41.7744C46.6922 44.0028 44.8794 45.8156 42.6514 45.8156ZM42.6514 38.1435C40.649 38.1435 39.0201 39.7725 39.0201 41.7748C39.0201 43.7768 40.649 45.4057 42.6514 45.4057C44.6533 45.4057 46.2823 43.7768 46.2823 41.7748C46.2819 39.7725 44.6529 38.1435 42.6514 38.1435Z" fill="white"/>
<path d="M54.6704 45.8156C52.442 45.8156 50.6288 44.0028 50.6288 41.7744C50.6288 39.546 52.442 37.7328 54.6704 37.7328C56.8989 37.7328 58.7121 39.546 58.7121 41.7744C58.7121 44.0028 56.8989 45.8156 54.6704 45.8156ZM54.6704 38.1435C52.6681 38.1435 51.0391 39.7725 51.0391 41.7748C51.0391 43.7768 52.6681 45.4057 54.6704 45.4057C56.6728 45.4057 58.3017 43.7768 58.3017 41.7748C58.3017 39.7725 56.6728 38.1435 54.6704 38.1435Z" fill="white"/>
<path d="M66.6899 45.8156C64.4615 45.8156 62.6487 44.0028 62.6487 41.7744C62.6487 39.546 64.4615 37.7328 66.6899 37.7328C68.9184 37.7328 70.7315 39.546 70.7315 41.7744C70.7315 44.0028 68.9184 45.8156 66.6899 45.8156ZM66.6899 38.1435C64.688 38.1435 63.059 39.7725 63.059 41.7748C63.059 43.7768 64.688 45.4057 66.6899 45.4057C68.6923 45.4057 70.3212 43.7768 70.3212 41.7748C70.3212 39.7725 68.6923 38.1435 66.6899 38.1435Z" fill="white"/>
<path d="M57.381 41.7744C57.381 43.2712 56.1677 44.4845 54.6708 44.4845C53.174 44.4845 51.9607 43.2712 51.9607 41.7744C51.9607 40.2775 53.174 39.0638 54.6708 39.0638C56.1677 39.0638 57.381 40.2775 57.381 41.7744Z" fill="#392960"/>
<path d="M69.4005 41.7744C69.4005 43.2712 68.1872 44.4845 66.6904 44.4845C65.1935 44.4845 63.9802 43.2712 63.9802 41.7744C63.9802 40.2775 65.1935 39.0638 66.6904 39.0638C68.1872 39.0638 69.4005 40.2775 69.4005 41.7744Z" fill="#392960"/>
<path d="M62.0308 63.3169H54.931V63.7272H62.0308V63.3169Z" fill="#E8972D"/>
<path d="M51.3801 72.2344C54.61 72.2344 57.2284 69.616 57.2284 66.3861C57.2284 63.1562 54.61 60.5378 51.3801 60.5378C48.1502 60.5378 45.5319 63.1562 45.5319 66.3861C45.5319 69.616 48.1502 72.2344 51.3801 72.2344Z" fill="#392960"/>
<path d="M51.3802 69.0278C52.8391 69.0278 54.0218 67.8451 54.0218 66.3861C54.0218 64.9272 52.8391 63.7445 51.3802 63.7445C49.9212 63.7445 48.7385 64.9272 48.7385 66.3861C48.7385 67.8451 49.9212 69.0278 51.3802 69.0278Z" fill="#BFA1FA"/>
<path d="M15.6089 45.4234L15.2023 45.3671C15.9946 39.5911 20.5668 36.4128 29.5909 35.366L29.6381 35.7735C18.0655 37.116 16.089 41.9237 15.6089 45.4234Z" fill="#E8972D"/>
</svg>
