<svg width="100" height="100" viewBox="0 0 100 100" fill="none" xmlns="http://www.w3.org/2000/svg">
<path fill-rule="evenodd" clip-rule="evenodd" d="M81.6707 53.6006C89.9581 55.4866 92.5998 65.1092 81.4293 71.2918C72.7053 76.1198 66.4424 72.0092 65.6168 66.6456C64.5084 59.4452 75.5391 52.2053 81.6707 53.6006Z" fill="#7F87FF"/>
<path fill-rule="evenodd" clip-rule="evenodd" d="M52.1037 80.7977C40.8511 74.3026 37.7644 62.7922 38.2788 52.7622C38.7937 42.7311 54.6111 36.5588 67.2146 53.4699C68.6422 55.3857 69.8095 57.234 70.7513 59.0099C71.4255 59.261 75.5501 60.8709 76.7953 64.9074C77.6726 67.7515 76.6445 70.2589 75.8419 72.2166C74.412 75.7046 72.0864 77.8611 70.7513 78.9214C69.2927 79.7513 60.1097 85.4184 52.1037 80.7977Z" fill="#7F87FF"/>
<path fill-rule="evenodd" clip-rule="evenodd" d="M52.747 38.2618C52.747 38.2618 58.1162 35.9466 60.6557 32.6677C63.1959 29.3882 68.0178 32.571 69.1754 39.1944C70.3336 45.8172 62.2638 48.2613 55.2221 47.2642C48.1817 46.2677 47.7956 42.3128 52.747 38.2618Z" fill="#7F87FF"/>
<path fill-rule="evenodd" clip-rule="evenodd" d="M38.6648 49.5782C38.6648 49.5782 33.0379 53.3076 27.3155 53.6937C21.5926 54.0797 20.6921 60.0271 23.039 64.3036C25.3858 68.5802 39.3719 69.9944 43.0374 57.7769C46.703 45.5588 42.2015 45.9449 38.6648 49.5782Z" fill="#7F87FF"/>
<path fill-rule="evenodd" clip-rule="evenodd" d="M46.2203 22.3465C46.2203 22.3465 42.2343 16.5269 34.4856 17.0413C26.7374 17.5556 20.0818 21.4461 19.5674 28.9371C19.0531 36.4281 19.2452 46.7487 27.0262 51.1213C39.6346 58.2074 67.4086 37.1638 48.7155 24.3444C47.9336 23.8087 47.0964 23.171 46.2203 22.3465Z" fill="#7F87FF"/>
<path fill-rule="evenodd" clip-rule="evenodd" d="M35.8997 18.456C35.8997 18.456 34.2277 11.2538 39.8218 10.0968C45.4171 8.93924 48.9209 18.4889 44.0984 21.1889C39.2758 23.889 35.8681 19.4525 35.8997 18.456Z" fill="#7F87FF"/>
<path fill-rule="evenodd" clip-rule="evenodd" d="M42.3644 14.4834C45.0475 13.9284 45.2177 18.3484 42.9049 19.6428C39.4473 21.5786 39.6169 15.0519 42.3644 14.4834Z" fill="#FFE67A"/>
<path fill-rule="evenodd" clip-rule="evenodd" d="M32.5065 29.7415C33.3321 30.8334 33.6495 31.9837 33.2166 32.3114C32.7831 32.6391 31.7629 32.0196 30.9373 30.9277C30.1122 29.8357 29.7943 28.6854 30.2272 28.3577C30.66 28.0306 31.6815 28.6495 32.5065 29.7415Z" fill="#505DD6"/>
<path fill-rule="evenodd" clip-rule="evenodd" d="M40.4486 24.5334C41.2737 25.6254 41.591 26.7751 41.1581 27.1028C40.7253 27.4305 39.7051 26.811 38.8788 25.719C38.0538 24.6271 37.7358 23.4768 38.1687 23.1485C38.6022 22.822 39.6224 23.4415 40.4486 24.5334Z" fill="#505DD6"/>
<path fill-rule="evenodd" clip-rule="evenodd" d="M46.5595 29.2575C52.6084 33.6611 48.7495 46.0318 39.6747 42.4496C36.5314 41.2093 34.3974 37.9474 35.5301 34.263C36.8719 29.8989 42.3754 26.2109 46.5595 29.2575Z" fill="#FFE67A"/>
<path fill-rule="evenodd" clip-rule="evenodd" d="M42.5249 32.2312C40.6602 33.5013 38.0562 33.1316 38.2969 31.6366C38.7408 28.8879 45.9034 26.6857 44.1585 30.3476C43.8065 31.0851 43.1128 31.8311 42.5249 32.2312Z" fill="#505DD6"/>
<path fill-rule="evenodd" clip-rule="evenodd" d="M22.4936 29.9658C22.4936 29.9658 21.657 24.9493 16.2551 24.3389C10.8549 23.7285 10.8221 33.6952 14.8731 35.0778C18.9247 36.4603 22.6541 33.663 22.4936 29.9658Z" fill="#7F87FF"/>
<path fill-rule="evenodd" clip-rule="evenodd" d="M20.0714 31.1301C20.0714 31.1301 19.5394 29.0988 16.1024 28.8508C12.6661 28.6033 12.6454 32.6409 15.2227 33.2009C17.8005 33.7615 20.1741 32.6288 20.0714 31.1301Z" fill="#FFE67A"/>
<path fill-rule="evenodd" clip-rule="evenodd" d="M36.3819 77.4209C32.4269 84.9441 38.0222 93.2073 49.9819 88.738C59.3212 85.2475 60.2696 77.8167 56.7306 73.7025C51.9798 68.1789 39.3075 71.8548 36.3819 77.4209Z" fill="#7F87FF"/>
<path fill-rule="evenodd" clip-rule="evenodd" d="M58.3004 73.8119C50.1485 69.1067 47.9123 60.7688 48.285 53.5016C48.6583 46.2349 60.117 41.7638 69.2478 54.0141C69.801 54.7571 70.3014 55.4854 70.7519 56.1998C70.9647 56.3767 75.9903 60.6971 74.8893 66.814C74.1998 70.6431 71.5259 72.8623 70.7519 73.4611C69.449 74.0405 63.5862 76.8628 58.3004 73.8119Z" fill="#FFE67A"/>
<path fill-rule="evenodd" clip-rule="evenodd" d="M37.385 77.1735C39.4619 74.6321 43.1779 78.4028 44.0795 83.7312C44.5659 86.6052 42.8824 88.5969 40.8554 88.6516C36.0681 88.7818 34.5214 80.6779 37.385 77.1735Z" fill="#FFE67A"/>
<path fill-rule="evenodd" clip-rule="evenodd" d="M23.3935 56.8145C22.273 58.8913 22.656 63.4002 24.8417 64.9852C29.0569 68.0409 31.2438 56.8041 26.1355 55.0665C25.2454 54.7637 24.2799 55.1717 23.3935 56.8145Z" fill="#FFE67A"/>
</svg>
