<svg width="100" height="100" viewBox="0 0 100 100" fill="none" xmlns="http://www.w3.org/2000/svg">
<path d="M50 20.0001C66.5688 20.0001 80 33.4313 80 50.0001C80 66.5688 66.5688 80.0007 50 80.0007C33.4313 80.0007 20 66.5688 20 50.0001C19.9994 33.4313 33.4313 20.0001 50 20.0001Z" fill="#57B0FA"/>
<path d="M64.8772 23.9437C72.6395 28.3854 78.2262 36.1955 79.6459 45.3822C69.3422 37.0722 59.0239 36.4644 59.0239 36.4644L59.1033 35.1188C59.1033 35.1188 60.5277 33.8525 62.7441 29.1028C63.5794 27.3156 64.3009 25.5057 64.8772 23.9437Z" fill="#FFE67A"/>
<path d="M68.9456 73.2597C63.7801 77.4721 57.1855 79.9995 50 79.9995C43.973 79.9995 38.3618 78.2205 33.6605 75.1617C36.1097 72.9902 38.7042 70.4062 41.3727 67.3347C54.9877 51.6613 54.829 38.5222 54.829 38.5222L59.42 38.3636C59.42 38.3636 67.019 43.9048 68.9981 57.203C69.8666 63.0376 69.5616 68.7194 68.9456 73.2597Z" fill="#616BFF"/>
<path d="M20.1213 47.3012C21.1753 35.4816 29.0835 25.6346 39.8445 21.7639C41.4718 22.3431 43.1371 23.0856 44.7761 24.0364C53.642 29.1815 56.4121 35.1975 56.4121 35.1975L56.7673 36.7409C56.7673 36.7409 34.3021 34.8085 20.1213 47.3012Z" fill="#FF454C"/>
<path d="M56.7679 31.3986C59.7187 31.3986 62.1108 33.7906 62.1108 36.7415C62.1108 39.6923 59.7187 42.0843 56.7679 42.0843C53.8171 42.0843 51.425 39.6923 51.425 36.7415C51.4245 33.7906 53.8171 31.3986 56.7679 31.3986Z" fill="white"/>
<path d="M50 20.0001C66.5687 20.0001 80 33.4313 80 50.0001C80 58.7756 76.2314 66.6709 70.2253 72.1567C66.3902 74.0809 62.0605 75.1658 57.4765 75.1658C41.753 75.1658 29.0065 62.4193 29.0065 46.6958C29.0065 34.5868 36.5664 24.2452 47.2236 20.1296C48.1381 20.045 49.0632 20.0001 50 20.0001Z" fill="#85C8FF"/>
<path d="M64.8772 23.9437C72.6389 28.3854 78.2262 36.1955 79.6459 45.3822C69.3422 37.0722 59.0239 36.4644 59.0239 36.4644L59.1033 35.1188C59.1033 35.1188 60.5277 33.8525 62.7441 29.1034C63.5794 27.3156 64.3009 25.5057 64.8772 23.9437Z" fill="#FFE67A"/>
<path d="M39.845 69.0495C40.3513 68.4954 40.8605 67.9244 41.3726 67.3347C54.987 51.6613 54.8289 38.5217 54.8289 38.5217L59.4199 38.3636C59.4199 38.3636 67.019 43.9042 68.998 57.2025C69.8321 62.8119 69.5831 68.279 69.015 72.7277C65.4878 74.2932 61.5839 75.1652 57.4759 75.1652C50.8183 75.1658 44.6938 72.8794 39.845 69.0495Z" fill="#7F87FF"/>
<path d="M42.1583 22.6937C43.0321 23.0874 43.9082 23.5325 44.7767 24.0364C53.6426 29.1816 56.4126 35.1975 56.4126 35.1975L56.7678 36.7415C56.7678 36.7415 42.4867 35.5131 29.5104 41.3465C30.9972 33.5241 35.6833 26.8344 42.1583 22.6937Z" fill="#FF6167"/>
<path d="M56.7678 31.3986C59.7186 31.3986 62.1107 33.7907 62.1107 36.7415C62.1107 39.6923 59.7186 42.0844 56.7678 42.0844C53.8175 42.0844 51.4249 39.6923 51.4249 36.7415C51.4243 33.7907 53.817 31.3986 56.7678 31.3986Z" fill="white"/>
</svg>
