<svg width="100" height="100" viewBox="0 0 100 100" fill="none" xmlns="http://www.w3.org/2000/svg">
<path d="M62.7548 22.101L16.7069 22C13.0364 21.992 10.0546 24.9614 10.0465 28.6313L10 49.7934C9.99196 53.4632 12.9608 56.4457 16.6313 56.4538L48.6722 56.5245C52.3427 56.5325 55.3246 53.5636 55.3326 49.8931L55.3568 38.9511C55.3568 38.9511 55.3165 35.9884 56.1768 34.6843C56.9714 33.4801 59.569 33.4485 59.569 33.4485L62.7294 33.4553C64.1816 33.4584 65.3611 32.2838 65.3642 30.8316L65.3772 24.7358C65.3815 23.2843 64.207 22.1048 62.7548 22.101Z" fill="#FF6167"/>
<path d="M25.6984 48.4478C25.6941 50.5625 23.976 52.2726 21.8612 52.2682L21.136 52.2664C19.0213 52.2614 17.3112 50.5439 17.3156 48.4292L17.3441 35.4095C17.3484 33.2954 19.0665 31.5847 21.1813 31.589L21.9065 31.5903C24.0212 31.5952 25.7313 33.3133 25.7269 35.4275L25.6984 48.4478Z" fill="#FF454C"/>
<path d="M47.8621 48.4961C47.8572 50.6109 46.1397 52.3209 44.0249 52.3166L43.2997 52.3147C41.185 52.3098 39.4749 50.5923 39.4793 48.4781L39.5078 35.4579C39.5121 33.3437 41.2302 31.633 43.3444 31.638L44.0702 31.6398C46.1849 31.6442 47.895 33.3623 47.8906 35.4771L47.8621 48.4961Z" fill="#FF454C"/>
<path d="M86.4618 50.4442C83.4464 48.2036 81.2889 47.6383 81.2889 47.6383C81.2889 47.6383 81.1804 40.6965 79.0526 37.8956C76.6688 34.7575 73.0151 34.3645 70.9003 34.3602L60.7956 34.3379C58.6808 34.3329 56.9634 36.0436 56.9584 38.1584L56.915 58.0039L15.6353 57.9141C13.5205 57.9091 11.803 59.6198 11.7981 61.7358L11.7919 64.6377C11.7869 66.7525 13.4976 68.47 15.6124 68.4749L86.1475 68.6293C88.2623 68.6342 89.9798 66.9236 89.9847 64.8088L89.9996 58.0752C90.0046 55.9604 90.0108 53.0821 86.4618 50.4442Z" fill="#85C8FF"/>
<path d="M75.4572 40.0959C73.969 38.1367 71.6875 37.8906 70.3673 37.8881L64.0577 37.8745C62.8212 37.872 61.8022 38.8085 61.6752 40.0116L61.651 51.0379L76.8251 51.0714L76.8387 44.7878C76.8387 44.7878 76.5276 41.5041 75.4572 40.0959Z" fill="white"/>
<path d="M89.5379 59.2491C89.5348 60.627 88.4154 61.7414 87.0382 61.7383L85.837 61.7358C84.4592 61.7333 83.3454 60.614 83.3479 59.2361L83.3535 56.6218C83.3566 55.244 84.4759 54.1302 85.8532 54.1326L87.055 54.1351C88.4322 54.1382 89.546 55.257 89.5435 56.6348L89.5379 59.2491Z" fill="#FFE67A"/>
<path d="M79.4288 68.6144C79.4176 73.7427 75.2519 77.8904 70.1236 77.8793C64.9954 77.8681 60.8476 73.7018 60.8588 68.5741C60.8699 63.4465 65.0363 59.2981 70.1639 59.3093C75.2916 59.3204 79.44 63.4868 79.4288 68.6144Z" fill="#616BFF"/>
<path d="M74.6829 68.6038C74.6774 71.111 72.6407 73.139 70.1336 73.1334C67.6271 73.1278 65.5984 71.0911 65.604 68.584C65.6096 66.0769 67.6463 64.0489 70.1534 64.0545C72.6605 64.06 74.6885 66.0974 74.6829 68.6038Z" fill="#FFE67A"/>
<path d="M40.9692 68.5301C40.958 73.6584 36.7917 77.8061 31.6641 77.7949C26.5358 77.7838 22.388 73.6181 22.3992 68.4898C22.4103 63.3621 26.5767 59.2138 31.7043 59.2249C36.8326 59.2361 40.9804 63.4024 40.9692 68.5301Z" fill="#616BFF"/>
<path d="M36.2233 68.5195C36.2178 71.0266 34.1811 73.0547 31.674 73.0491C29.1668 73.0435 27.1388 71.0068 27.1444 68.5003C27.15 65.9932 29.1867 63.9652 31.6938 63.9708C34.2015 63.9757 36.2289 66.0124 36.2233 68.5195Z" fill="#FFE67A"/>
</svg>
