<svg width="100" height="100" viewBox="0 0 100 100" fill="none" xmlns="http://www.w3.org/2000/svg">
<path d="M45.4003 76.6609C44.5695 77.234 43.4945 77.3168 42.584 76.8808L32.85 72.2172C32.3018 71.9547 31.8633 71.5271 31.5856 71.0082C31.3998 70.6671 31.2859 70.2846 31.2567 69.8845C30.9491 65.7824 31.1397 61.9173 31.7604 58.2861C33.3768 48.8298 37.9088 40.951 44.1493 34.5492C48.7775 29.7991 54.3474 25.8627 60.3595 22.6962C61.823 21.9257 63.621 22.787 63.9377 24.4107C65.2387 31.0812 65.6601 37.8874 64.8574 44.4702C63.3646 56.7537 57.6187 68.2613 45.4003 76.6609Z" fill="#7F87FF"/>
<path d="M61.9741 28.9799C55.4023 42.0967 43.3203 51.3459 31.5557 59.6054C31.1013 62.8498 30.9856 66.2758 31.2567 69.8851C31.2859 70.2846 31.3998 70.6677 31.5855 71.0088C31.8633 71.5277 32.3018 71.9547 32.85 72.2178L42.584 76.8814C43.4939 77.3175 44.5695 77.2346 45.4003 76.6615C57.6187 68.2619 63.3646 56.7543 64.8574 44.4708C65.6577 37.9069 65.2411 31.1214 63.9492 24.4704C63.3706 26.0047 62.7104 27.5103 61.9741 28.9799Z" fill="#616BFF"/>
<path d="M31.2572 69.8857C31.2871 70.2853 31.3997 70.6677 31.5861 71.0094C28.648 72.7471 27.3002 75.7309 27.3069 80.258C27.3069 80.8707 26.6643 81.2703 26.1143 81.0053L21.9051 78.99C20.7144 78.4193 19.9664 77.2018 20.0012 75.8825C20.0858 72.8031 20.4056 70.3669 20.9318 68.4033C22.6634 61.9393 26.6326 60.5902 31.7615 58.2867C31.5453 59.5469 31.3821 60.8344 31.2725 62.1525C31.0672 64.6295 31.0562 67.2058 31.2572 69.8857Z" fill="#FF454C"/>
<path d="M54.1568 69.0166C51.7157 71.7756 48.8232 74.3465 45.4338 76.6773C45.1043 76.9051 44.7346 77.0562 44.3521 77.125C44.8387 80.5041 43.3581 83.4227 39.8262 86.2561C39.3493 86.6386 39.44 87.3901 39.9912 87.6539L44.1998 89.6705C45.3905 90.2405 46.8072 90.0615 47.8134 89.207C57.8867 80.6484 56.0077 76.1103 54.1568 69.0166Z" fill="#FF454C"/>
<path d="M31.7615 58.2861C31.5453 59.5463 31.382 60.8338 31.2724 62.1518C29.1474 63.8883 26.4523 64.8567 24.0234 66.1869C22.9295 66.7856 21.8466 67.528 20.9318 68.4026C22.6633 61.9393 26.6326 60.5902 31.7615 58.2861Z" fill="#FF6167"/>
<path d="M44.7022 65.5571C42.2532 72.283 39.5094 78.4412 36.2515 83.6109C35.6278 84.5982 34.3616 84.9569 33.3085 84.4526L32.7945 84.2066C31.7384 83.7004 31.2261 82.4841 31.6099 81.3799C31.6586 81.2374 31.7085 81.0961 31.7585 80.9536C33.8049 75.1809 36.8326 69.3485 40.3755 63.4863C40.6514 63.0271 41.2342 62.8547 41.7166 63.0867L42.3921 63.4095L44.1705 64.2622C44.6535 64.4931 44.8837 65.0546 44.7022 65.5571Z" fill="#FF454C"/>
<path d="M42.392 63.4089C40.0788 69.572 37.4982 75.2211 34.4736 80.0193C33.8956 80.9377 32.7591 81.3123 31.7578 80.953C33.8043 75.1803 36.8319 69.3479 40.3748 63.4857C40.6507 63.0265 41.2336 62.8541 41.716 63.0861L42.392 63.4089Z" fill="#FF6167"/>
<path d="M67.2608 15.7294L65.0704 14.6799L59.9922 25.2782L62.1826 26.3278L67.2608 15.7294Z" fill="#979797"/>
<path d="M70.0703 14.7687C69.2761 16.4284 67.2875 17.1288 65.6278 16.334C64.506 15.7962 63.8226 14.712 63.744 13.5542C63.7063 12.9993 63.8067 12.4274 64.0638 11.8915C64.858 10.2336 66.8466 9.53318 68.5063 10.3274C68.7773 10.4577 69.0234 10.6204 69.2414 10.8086C70.3542 11.7648 70.7348 13.3818 70.0703 14.7687Z" fill="#FF454C"/>
<path d="M68.9216 12.4713C68.1274 14.1292 66.1388 14.8296 64.4792 14.0354C64.2081 13.905 63.9621 13.7424 63.744 13.5542C63.7063 12.9993 63.8067 12.4274 64.0638 11.8915C64.858 10.2336 66.8466 9.53318 68.5063 10.3274C68.7773 10.4577 69.0234 10.6204 69.2414 10.8086C69.2792 11.3634 69.1787 11.9341 68.9216 12.4713Z" fill="#FF6167"/>
<path d="M64.8567 44.4702C61.4203 43.0066 57.9255 41.4273 54.3954 39.7359C50.8647 38.0452 47.4424 36.3087 44.1486 34.5492C45.3661 33.3 46.6494 32.1062 47.9893 30.9685C51.7393 27.7813 55.9296 25.0295 60.3593 22.6962C61.3655 22.1663 62.5294 22.4081 63.2615 23.1396C63.5953 23.4703 63.8383 23.9028 63.937 24.4107C65.2391 31.0812 65.6594 37.8868 64.8567 44.4702Z" fill="#FF6167"/>
<path d="M61.9741 28.9799C59.9916 32.937 57.5048 36.5396 54.6799 39.8717C58.1138 41.5113 61.513 43.0462 64.8567 44.4708C65.6564 37.9075 65.2411 31.1232 63.948 24.471C63.3706 26.0052 62.7104 27.5102 61.9741 28.9799Z" fill="#FF454C"/>
<path d="M57.0278 55.7987C54.4819 60.8746 48.5411 63.0447 43.7576 60.6456C38.974 58.2465 37.1602 52.187 39.7055 47.1111C42.2513 42.0351 50.2678 35.7271 55.0514 38.1262C59.8343 40.5253 59.5731 50.7228 57.0278 55.7987Z" fill="#85C8FF"/>
<path d="M53.4496 39.7938C52.349 39.0934 50.9152 39.2249 49.6581 39.5739C47.0873 40.2871 44.7503 41.8195 43.0718 43.8934C42.1046 45.0884 41.342 46.7718 42.0839 48.1184C42.7331 49.297 44.2552 49.6703 45.6006 49.6661C48.2135 49.6575 50.8105 48.6434 52.7382 46.8802C53.7529 45.952 54.6062 44.7753 54.8492 43.422C55.0922 42.068 54.6098 40.532 53.4496 39.7938Z" fill="#57B0FA"/>
<path d="M42.1217 52.902C42.6875 52.4878 42.9372 51.6894 42.7076 51.0273C42.4067 50.1582 41.2879 49.6819 40.4528 50.068C39.6178 50.4542 39.2548 51.6145 39.722 52.4068C40.1885 53.1992 41.3792 53.4453 42.1217 52.902Z" fill="#57B0FA"/>
<path d="M30.798 29.9045L31.675 31.8236L33.9042 32.08L33.9054 32.0782C34.7472 32.1751 35.3507 32.9358 35.2539 33.7775C35.2064 34.1935 34.9963 34.551 34.6948 34.7946L33.1112 36.2485L33.5558 38.4441L33.5619 38.4429C33.73 39.2731 33.1934 40.0825 32.3627 40.2506C31.9339 40.3377 31.51 40.236 31.1774 40.0027L29.3533 38.9734L27.3988 40.0764L27.4025 40.0825C26.6643 40.4985 25.7288 40.2384 25.3128 39.5008C25.0996 39.1232 25.0637 38.6938 25.1782 38.3089L25.5954 36.2485L23.9418 34.7295L23.9394 34.7319C23.3151 34.1588 23.2743 33.1885 23.8468 32.5642C24.1257 32.2603 24.4985 32.0947 24.8804 32.0709L27.0322 31.8236L27.9628 29.7869L27.9579 29.7845C28.31 29.014 29.2205 28.6748 29.9904 29.0268C30.3832 29.2059 30.6634 29.5287 30.798 29.9045Z" fill="#FF6167"/>
<path d="M75.9075 62.9534L76.1255 65.0516L78.1567 66.0066L78.1586 66.0054C78.9254 66.3653 79.2549 67.2795 78.8943 68.0457C78.7165 68.4246 78.4034 68.6962 78.0398 68.8314L76.075 69.7042L75.7948 71.9267L75.8015 71.9273C75.6955 72.7678 74.9281 73.3635 74.0882 73.2575C73.6539 73.2027 73.2848 72.9718 73.0443 72.6448L71.644 71.0868L69.4398 71.5083L69.4411 71.5156C68.6091 71.6745 67.8057 71.1288 67.6462 70.2974C67.5645 69.8717 67.6681 69.4533 67.8995 69.125L68.952 67.3051L67.8691 65.3379L67.8666 65.3391C67.458 64.5966 67.729 63.6641 68.4708 63.2555C68.832 63.0563 69.2388 63.0192 69.6079 63.1178L71.7263 63.5697L73.2587 61.9369L73.2544 61.9326C73.8342 61.315 74.8051 61.2839 75.4227 61.8638C75.7375 62.1585 75.9002 62.5544 75.9075 62.9534Z" fill="#FFE67A"/>
</svg>
