<svg width="100" height="100" viewBox="0 0 100 100" fill="none" xmlns="http://www.w3.org/2000/svg">
<path d="M6.41479 48.0854L66.3496 13.815L68.7103 17.2748L10.5671 52.9919L6.41479 48.0854Z" fill="#FFE67A"/>
<path d="M22.8577 69.786L72.2969 24.8868L73.9933 26.5127L27.7689 75.4027L22.8577 69.786Z" fill="#FFE67A"/>
<path d="M2.11032 42.511C4.47929 40.6818 7.9132 41.1241 9.74176 43.4931L31.9059 72.2067C33.7345 74.5756 33.2922 78.0096 30.9232 79.8381C28.5542 81.6673 25.1197 81.225 23.2918 78.856L1.12761 50.1424C-0.700362 47.7734 -0.258638 44.3389 2.11032 42.511Z" fill="#FF454C"/>
<path d="M6.10111 41.4255C7.49499 41.5976 8.82192 42.3013 9.74237 43.4937L31.9065 72.2073C33.7351 74.5763 33.2928 78.0102 30.9238 79.8387C30.4938 80.1712 30.0286 80.4279 29.544 80.6117C28.1507 80.4396 26.8238 79.7359 25.9034 78.5435L3.73919 49.8299C1.91064 47.461 2.35293 44.027 4.72189 42.1985C5.15128 41.8666 5.61651 41.6093 6.10111 41.4255Z" fill="#FF6167"/>
<path d="M16.9027 35.1362C19.2722 33.3082 22.7061 33.7506 24.5347 36.1189L42.7874 59.7657C44.616 62.1346 44.1736 65.5685 41.8047 67.3977C39.4357 69.2257 36.0018 68.7839 34.1727 66.4144L15.92 42.7682C14.092 40.3987 14.5337 36.9648 16.9027 35.1362Z" fill="#505DD6"/>
<path d="M21.1437 34.0865C22.4447 34.308 23.6695 34.997 24.5347 36.1183L42.7874 59.7651C44.616 62.134 44.1736 65.568 41.8047 67.3971C40.8443 68.1378 39.7095 68.5055 38.5775 68.5243L18.5474 42.575C16.7188 40.2054 17.1606 36.7715 19.5295 34.9436C20.0282 34.5576 20.5745 34.2733 21.1437 34.0865Z" fill="#616BFF"/>
<path d="M31.4302 27.4167C33.7991 25.5881 37.2336 26.0298 39.0616 28.3988L53.9344 47.6665C55.763 50.0355 55.3206 53.4694 52.9517 55.2974C50.5827 57.1265 47.1482 56.6836 45.3203 54.3152L30.448 35.0475C28.6189 32.6792 29.0612 29.2447 31.4302 27.4167Z" fill="#57B0FA"/>
<path d="M36.4664 26.5656C37.4632 26.8933 38.3748 27.5118 39.0615 28.3994L53.9337 47.6671C55.7629 50.0355 55.32 53.47 52.951 55.2991C52.0899 55.9641 51.0878 56.3277 50.0734 56.4087L33.6428 35.1227C31.8148 32.7538 32.256 29.3193 34.6255 27.4907C35.19 27.0543 35.8167 26.7482 36.4664 26.5656Z" fill="#85C8FF"/>
<path d="M45.7273 19.4017C48.0962 17.5726 51.5307 18.0149 53.3587 20.3838L65.3098 35.8664C67.1384 38.2347 66.6961 41.6692 64.3277 43.4978C61.9587 45.327 58.5242 44.8841 56.6963 42.5157L44.7452 27.0331C42.916 24.6636 43.3583 21.2297 45.7273 19.4017Z" fill="#FF454C"/>
<path d="M50.4805 18.4636C51.5878 18.7626 52.6087 19.4099 53.3594 20.3826L65.3105 35.8652C67.1391 38.2347 66.6968 41.6692 64.3278 43.4984C63.5724 44.0805 62.7101 44.4329 61.8243 44.5651L48.1545 26.8551C46.3259 24.4862 46.7682 21.0523 49.1372 19.2231C49.5566 18.8995 50.0095 18.6475 50.4805 18.4636Z" fill="#FF6167"/>
<path d="M59.8254 11.1277C62.1944 9.29968 65.6283 9.74141 67.4568 12.1098L76.8833 24.3223C78.7119 26.6913 78.2696 30.1252 75.9006 31.9543C73.5317 33.7823 70.0972 33.34 68.2686 30.971L58.8427 18.7597C57.0147 16.3907 57.4564 12.9568 59.8254 11.1277Z" fill="#505DD6"/>
<path d="M61.4719 10.2618C63.5953 9.5781 66.0224 10.2501 67.4586 12.1104L76.8845 24.3229C78.7131 26.6918 78.2708 30.1257 75.9018 31.9543C75.1341 32.547 74.2547 32.9006 73.3537 33.0275L61.1799 17.2565C59.547 15.1413 59.7261 12.175 61.4719 10.2618Z" fill="#616BFF"/>
<path d="M7.00043 48.8454C7.76991 48.251 8.87537 48.3931 9.46923 49.1632C10.0637 49.9333 9.92153 51.0382 9.15146 51.632C8.38197 52.2265 7.27649 52.0843 6.68264 51.3142C6.08878 50.5453 6.23094 49.4399 7.00043 48.8454Z" fill="white"/>
<path d="M20.8388 40.3206C21.6083 39.7261 22.7138 39.8683 23.3076 40.6384C23.9015 41.4084 23.7593 42.5139 22.9892 43.1072C22.2197 43.7016 21.1149 43.5589 20.5204 42.7894C19.9272 42.0205 20.0693 40.915 20.8388 40.3206Z" fill="white"/>
<path d="M35.3251 32.3731C36.0945 31.7787 37.2 31.9208 37.7945 32.6909C38.3877 33.4598 38.2456 34.5653 37.4761 35.1597C36.7066 35.7542 35.6011 35.612 35.0073 34.842C34.4128 34.0725 34.555 32.967 35.3251 32.3731Z" fill="white"/>
<path d="M49.5888 23.7895C50.3589 23.1963 51.4643 23.3384 52.0582 24.1073C52.6521 24.8774 52.5099 25.9829 51.7404 26.5773C50.9709 27.1706 49.8655 27.0284 49.2716 26.2595C48.6772 25.4889 48.8193 24.3834 49.5888 23.7895Z" fill="white"/>
<path d="M62.9539 15.089C63.7239 14.4958 64.8294 14.6379 65.4233 15.4068C66.0177 16.1763 65.875 17.2824 65.1055 17.8762C64.336 18.4701 63.2305 18.3273 62.6361 17.5584C62.0428 16.789 62.185 15.6835 62.9539 15.089Z" fill="white"/>
<path d="M24.2751 71.2252C25.0446 70.6307 26.15 70.7729 26.7439 71.5429C27.3372 72.3118 27.195 73.4173 26.4261 74.0117C25.6566 74.6062 24.5512 74.4641 23.9573 73.694C23.3634 72.9245 23.5056 71.8196 24.2751 71.2252Z" fill="white"/>
<path d="M35.8972 59.8291C36.6667 59.2347 37.7722 59.3768 38.366 60.1469C38.9599 60.917 38.8177 62.0225 38.0483 62.6157C37.2788 63.2102 36.1733 63.068 35.5794 62.298C34.9856 61.5291 35.1283 60.4236 35.8972 59.8291Z" fill="white"/>
<path d="M47.5794 48.251C48.3489 47.6565 49.455 47.7987 50.0488 48.5687C50.6427 49.3388 50.4999 50.4431 49.731 51.0376C48.9615 51.632 47.8561 51.4899 47.2616 50.7198C46.6678 49.9497 46.8099 48.8454 47.5794 48.251Z" fill="white"/>
<path d="M59.4324 36.5419C60.2019 35.9474 61.3074 36.0896 61.9013 36.8596C62.4957 37.6291 62.353 38.734 61.5835 39.3285C60.814 39.9229 59.7085 39.7808 59.1147 39.0107C58.5202 38.2418 58.663 37.1363 59.4324 36.5419Z" fill="white"/>
<path d="M70.6457 25.0548C71.4152 24.4615 72.5207 24.6037 73.1151 25.3726C73.709 26.1426 73.5668 27.2481 72.7973 27.842C72.0272 28.4352 70.9218 28.2931 70.3279 27.5242C69.7335 26.7547 69.8762 25.6492 70.6457 25.0548Z" fill="white"/>
<path d="M70.2768 46.1522C70.5699 45.5472 71.3036 45.2917 71.9086 45.5836L99.3105 58.8347C99.9156 59.1266 100.171 59.8614 99.8792 60.467H99.8785C99.5854 61.0721 98.8512 61.3282 98.2462 61.0345L70.8442 47.7834C70.2392 47.4921 69.9837 46.7573 70.2768 46.1522Z" fill="#FFE67A"/>
<path d="M64.1979 43.2123C65.2875 40.9597 67.9966 40.0169 70.2498 41.1059C72.503 42.1949 73.4458 44.9046 72.3562 47.1578C71.2672 49.4111 68.5581 50.3544 66.3049 49.2648C64.0516 48.1746 63.1089 45.4661 64.1979 43.2123Z" fill="#FFE67A"/>
<path d="M64.9944 45.0062C65.3732 44.2226 66.3148 43.8955 67.0972 44.2737C67.8802 44.6526 68.2074 45.5936 67.8291 46.3766C67.4503 47.159 66.5093 47.4874 65.7263 47.1079C64.9439 46.7302 64.6167 45.788 64.9944 45.0062Z" fill="white"/>
<path d="M58.5126 60.9687C59.1152 61.2677 59.3625 62.0043 59.0647 62.6069L45.5317 89.8697C45.2327 90.4729 44.4962 90.7202 43.8935 90.4212C43.2914 90.1222 43.0435 89.3856 43.3419 88.783L56.8749 61.5202C57.1733 60.9182 57.9105 60.6697 58.5126 60.9687Z" fill="#FFE67A"/>
<path d="M61.5142 54.9197C63.7557 56.0328 64.6708 58.7519 63.5589 60.9933C62.4458 63.2348 59.7267 64.1494 57.4852 63.0375C55.2437 61.925 54.3286 59.2059 55.4411 56.965C56.5542 54.7229 59.2727 53.8078 61.5142 54.9197Z" fill="#FFE67A"/>
<path d="M59.7144 55.6992C60.4932 56.0862 60.811 57.0308 60.4245 57.8097C60.0374 58.588 59.0929 58.9063 58.314 58.5192C57.5357 58.1327 57.2173 57.1882 57.6039 56.4093C57.9909 55.6304 58.9355 55.3132 59.7144 55.6992Z" fill="white"/>
</svg>
