<svg width="100" height="100" viewBox="0 0 100 100" fill="none" xmlns="http://www.w3.org/2000/svg">
<path d="M56.9155 37.9829H19.779C17.251 37.9829 15.2023 40.0316 15.2023 42.5597V74.4286H26.3033V64.689C26.3033 58.0371 31.6957 52.6454 38.3469 52.6454C44.9988 52.6454 50.3905 58.0378 50.3905 64.689V74.4286H61.4916V42.5597C61.4923 40.0316 59.4435 37.9829 56.9155 37.9829Z" fill="#7F87FF"/>
<path d="M50.496 68.2497C50.496 67.7184 50.4578 67.1962 50.3912 66.6836V74.4286H50.496V68.2497Z" fill="#616BFF"/>
<path d="M37.5174 12.3095L10.4403 35.7573C9.55323 36.5257 10.0963 37.9829 11.2698 37.9829H65.4234C66.5969 37.9829 67.1399 36.5257 66.2528 35.7573L39.1757 12.3095C38.7006 11.8968 37.9939 11.8968 37.5174 12.3095Z" fill="#FFE67A"/>
<path d="M73.4013 87.8336H11.2525C10.5998 87.8336 10.0699 87.3044 10.0699 86.6511V75.6104C10.0699 74.9577 10.5991 74.4279 11.2525 74.4279H73.4013C74.054 74.4279 74.5838 74.9571 74.5838 75.6104V86.6511C74.5838 87.3044 74.0547 87.8336 73.4013 87.8336Z" fill="#FF6167"/>
<path d="M81.9202 58.1057L73.5504 60.0893C72.4282 60.3549 71.7346 61.4806 72.0003 62.602L77.5106 85.85C77.7762 86.9722 78.9018 87.6658 80.0233 87.4001L88.3932 85.4159C89.5153 85.1503 90.2089 84.0246 89.9433 82.9031L84.433 59.6551C84.1673 58.5336 83.0424 57.8394 81.9202 58.1057Z" fill="#FF6167"/>
</svg>
