<svg width="100" height="100" viewBox="0 0 100 100" fill="none" xmlns="http://www.w3.org/2000/svg">
<path d="M41.5846 59.2662H35.5057V77.899H41.5846V59.2662Z" fill="#392960"/>
<path d="M60.2175 59.2662H41.5846V77.899H60.2175V59.2662Z" fill="#FDC360"/>
<path d="M58.2054 75.8869H43.5967V61.2787H58.2054V75.8869ZM44.0865 75.3971H57.7156V61.7685H44.0865V75.3971Z" fill="#F4AA40"/>
<path d="M50.3246 63.7596H52.1594L55.5184 73.3376H53.738L52.9146 70.8822H49.5561L48.7465 73.3376H46.9661L50.3246 63.7596ZM52.4836 69.4657L51.6338 66.9026C51.4717 66.3628 51.2562 65.419 51.2562 65.419H51.2293C51.2293 65.419 51.0133 66.3633 50.8516 66.9026L49.9881 69.4657H52.4836Z" fill="white"/>
<path d="M31.4492 40.6333H25.3704V59.2662H31.4492V40.6333Z" fill="#392960"/>
<path d="M50.0826 40.6333H31.4497V59.2662H50.0826V40.6333Z" fill="#F30A07"/>
<path d="M48.07 57.2541H33.4618V42.6459H48.07V57.2541ZM33.9521 56.7643H47.5807V43.1357H33.9521V56.7643Z" fill="#C60000"/>
<path d="M36.8668 45.4128H38.6071V51.5372C38.6071 52.8327 39.4436 53.5606 40.725 53.5606C42.0063 53.5606 42.8428 52.8327 42.8428 51.5372V45.4128H44.5831V51.5504C44.5831 53.6952 43.0451 55.1524 40.7382 55.1524C38.418 55.1524 36.8668 53.6952 36.8668 51.5504V45.4128Z" fill="white"/>
<path d="M57.453 40.6333H51.3741V59.2662H57.453V40.6333Z" fill="#392960"/>
<path d="M76.0859 40.6333H57.453V59.2662H76.0859V40.6333Z" fill="#BFA1FA"/>
<path d="M74.0743 57.2541H59.4661V42.6459H74.0743V57.2541ZM59.9554 56.7643H73.584V43.1357H59.9554V56.7643Z" fill="#8D71D3"/>
<path d="M63.8585 45.4128H67.2719C69.0122 45.4128 70.2401 46.3027 70.2401 47.8814C70.2401 48.7713 69.8081 49.5408 69.0798 49.9321V49.9591C70.1318 50.2696 70.6309 51.2409 70.6309 52.2122C70.6309 54.1277 69.093 54.9912 67.3263 54.9912H63.859V45.4128H63.8585ZM67.2851 49.3253C68.0404 49.3253 68.4724 48.7855 68.4724 48.0974C68.4724 47.4097 68.0546 46.9101 67.2587 46.9101H65.5993V49.3253H67.2851ZM67.461 53.493C68.3509 53.493 68.8505 52.913 68.8505 52.1039C68.8505 51.308 68.3377 50.7276 67.461 50.7276H65.5993V53.4925H67.461V53.493Z" fill="white"/>
<path d="M19.0936 59.2662H10V77.899H19.0936V59.2662Z" fill="#392960"/>
<path d="M37.7264 59.2662H19.0935V77.899H37.7264V59.2662Z" fill="#BFA1FA"/>
<path d="M35.7143 75.8869H21.1061V61.2787H35.7143V75.8869ZM21.5959 75.3971H35.2245V61.7685H21.5959V75.3971Z" fill="#8D71D3"/>
<path d="M28.796 63.5974C30.0509 63.5974 31.3993 64.002 32.3304 64.9062L31.4943 66.2017C30.8198 65.6213 29.8084 65.1898 28.8768 65.1898C26.7726 65.1898 25.6662 66.714 25.6662 68.4817C25.6662 70.2758 26.8128 71.9078 28.8905 71.9078C29.9157 71.9078 30.9413 71.4092 31.6696 70.6941L32.5865 71.9485C31.7637 72.785 30.5358 73.4997 28.8229 73.4997C25.8141 73.4997 23.8721 71.3279 23.8721 68.5086C23.8721 65.729 25.9091 63.5974 28.796 63.5974Z" fill="white"/>
<path d="M90 59.2662H83.9211V77.899H90V59.2662Z" fill="#392960"/>
<path d="M83.9877 59.2662H65.3549V77.899H83.9877V59.2662Z" fill="#9FD2FE"/>
<path d="M81.9751 75.8869H67.3669V61.2787H81.9751V75.8869ZM67.8567 75.3971H81.4853V61.7685H67.8567V75.3971Z" fill="#61AAE0"/>
<path d="M73.486 68.4812L70.6261 63.7596H72.6093L73.9312 66.1067C74.2275 66.6597 74.5249 67.2807 74.5249 67.2807H74.5518C74.5518 67.2807 74.8217 66.6739 75.1454 66.1067L76.4811 63.7596H78.4643L75.5911 68.4812L78.5725 73.3376H76.63L75.1322 70.7607C74.8217 70.2078 74.5386 69.6274 74.5386 69.6274H74.5116C74.5116 69.6274 74.2418 70.2078 73.9312 70.7607L72.4476 73.3376H70.5188L73.486 68.4812Z" fill="white"/>
<path d="M45.499 22H39.4202V40.6328H45.499V22Z" fill="#392960"/>
<path d="M64.1324 22H45.4995V40.6328H64.1324V22Z" fill="#FDC360"/>
<path d="M62.1198 38.6208H47.5116V24.0126H62.1198V38.6208ZM48.0019 38.131H61.6305V24.5024H48.0019V38.131Z" fill="#F4AA40"/>
<path d="M50.5566 26.3685H52.4046L54.2928 31.1034C54.5083 31.6701 54.765 32.5061 54.765 32.5061H54.7924C54.7924 32.5061 55.0481 31.6701 55.2646 31.1034L57.1527 26.3685H59.0007L59.7834 35.9465H58.0427L57.6518 30.5905C57.5979 29.9567 57.6381 29.107 57.6381 29.107H57.6112C57.6112 29.107 57.3006 30.0376 57.0851 30.5905L55.5339 34.3003H54.0229L52.4717 30.5905C52.2557 30.0376 51.9457 29.0932 51.9457 29.0932H51.9183C51.9183 29.0932 51.9589 29.9567 51.905 30.5905L51.5137 35.9465H49.7734L50.5566 26.3685Z" fill="white"/>
</svg>
