<svg width="100" height="100" viewBox="0 0 100 100" fill="none" xmlns="http://www.w3.org/2000/svg">
<path d="M81.6298 82.5193H18.2432V89.7625H81.6298V82.5193Z" fill="#392960"/>
<path d="M50.0923 89.7625H49.7807C48.4459 89.7625 47.3644 88.6803 47.3644 87.3462V12.1789C47.3644 10.8441 48.4459 9.76251 49.7807 9.76251H50.0923C51.427 9.76251 52.5086 10.8447 52.5086 12.1789V87.3462C52.5086 88.6803 51.427 89.7625 50.0923 89.7625Z" fill="#392960"/>
<path d="M72.5473 82.5193H27.3256C24.1567 82.5193 21.5642 79.9268 21.5642 76.7578V76.1018C21.5642 72.9329 24.1567 70.3404 27.3256 70.3404H72.5473C75.7162 70.3404 78.3087 72.9329 78.3087 76.1018V76.7578C78.3087 79.9268 75.7162 82.5193 72.5473 82.5193Z" fill="#FDC360"/>
<path d="M67.6699 70.341H32.2031C29.0342 70.341 26.4417 67.7485 26.4417 64.5796V63.9235C26.4417 60.7546 29.0342 58.1621 32.2031 58.1621H67.6699C70.8388 58.1621 73.4313 60.7546 73.4313 63.9235V64.5796C73.4313 67.7485 70.8388 70.341 67.6699 70.341Z" fill="#F30A07"/>
<path d="M64.1027 58.1627H35.7709C32.602 58.1627 30.0095 55.5702 30.0095 52.4013V51.7452C30.0095 48.5763 32.602 45.9838 35.7709 45.9838H64.1027C67.2716 45.9838 69.8641 48.5763 69.8641 51.7452V52.4013C69.8641 55.5702 67.271 58.1627 64.1027 58.1627Z" fill="#BFA1FA"/>
<path d="M60.9824 45.9845H38.8913C35.7224 45.9845 33.1299 43.392 33.1299 40.223V39.5676C33.1299 36.3987 35.7224 33.8062 38.8913 33.8062H60.9824C64.1513 33.8062 66.7438 36.3987 66.7438 39.5676V40.2237C66.7432 43.392 64.1506 45.9845 60.9824 45.9845Z" fill="#FDC360"/>
<path d="M57.114 33.8062H42.759C39.5901 33.8062 36.9976 31.2137 36.9976 28.0448V27.3887C36.9976 24.2198 39.5901 21.6273 42.759 21.6273H57.114C60.2829 21.6273 62.8754 24.2198 62.8754 27.3887V28.0448C62.8754 31.2137 60.2829 33.8062 57.114 33.8062Z" fill="#9FD2FE"/>
<path d="M60.8884 26.4995C60.334 24.6285 59.1177 23.6635 57.1703 23.5469L57.2085 22.9006C59.4299 23.0327 60.8767 24.1823 61.5101 26.3143L60.8884 26.4995Z" fill="white"/>
<path d="M64.5696 38.5535C64.0152 36.6824 62.7983 35.7174 60.8508 35.6008L60.889 34.9545C63.1111 35.0866 64.5579 36.2355 65.1913 38.3682L64.5696 38.5535Z" fill="white"/>
<path d="M67.6887 50.7006C67.1343 48.8296 65.918 47.8646 63.9706 47.748L64.0088 47.1017C66.2308 47.2338 67.6777 48.3827 68.3104 50.5154L67.6887 50.7006Z" fill="white"/>
<path d="M71.3142 62.9248C70.7598 61.0538 69.5436 60.0888 67.5955 59.9723L67.6337 59.3259C69.8557 59.458 71.3032 60.6069 71.936 62.7396L71.3142 62.9248Z" fill="white"/>
<path d="M76.1462 75.2378C75.5918 73.3668 74.3756 72.4018 72.4281 72.2852L72.4663 71.6389C74.6884 71.771 76.1352 72.9206 76.768 75.0532L76.1462 75.2378Z" fill="white"/>
</svg>
