<svg width="123" height="52" viewBox="0 0 123 52" fill="none" xmlns="http://www.w3.org/2000/svg">
<path d="M34.7614 33.1559C34.7174 33.1559 34.6735 33.1778 34.6296 33.1778C18.3771 36.1209 5.26532 32.5409 4.25503 25.2053C3.22278 17.8698 15.5878 9.54587 31.8403 6.62481C34.8492 6.07574 37.7703 5.76826 40.5376 5.65845C40.5595 5.65845 40.5595 5.61453 40.5376 5.61453C36.4964 5.3949 32.016 5.65845 27.3379 6.515C11.2392 9.41409 -0.950148 18.0015 0.104067 25.6885C1.18024 33.3755 15.1047 37.241 31.2034 34.3419C32.7188 34.0783 33.2899 33.7269 34.7394 33.3755C34.7614 33.2657 34.7614 33.1998 34.7614 33.1559Z" fill="#FF5B00"/>
<path d="M54.2201 3.72577C54.1542 3.79166 54.0664 3.83558 53.9785 3.87951C53.693 4.03325 53.3856 4.1211 53.0781 4.20895C52.5729 4.34073 52.0458 4.47251 51.5407 4.60428C51.2332 4.67017 50.9257 4.73606 50.5963 4.80195C50.5523 4.82391 50.4865 4.82391 50.4425 4.84587C50.3547 4.86784 50.2449 4.8898 50.1351 4.91176C49.9813 4.93372 49.8276 4.97765 49.6738 4.99961C48.9491 5.96598 47.7411 7.5473 47.1481 8.35992C46.2476 9.56787 45.5668 9.17254 45.5668 9.17254L47.1701 5.46083C46.9944 5.48279 46.8406 5.52672 46.6649 5.54868C46.1817 5.63653 45.6986 5.72438 45.2154 5.76831C45.0177 5.79027 44.8201 5.81224 44.6224 5.8342C44.2271 5.87812 43.8317 5.92205 43.4144 5.96598C43.063 6.0099 42.6897 6.05383 42.3383 5.90009C42.0527 5.79027 41.877 5.52672 41.7233 5.28513C41.5256 4.97765 41.328 4.69213 41.1523 4.38465C40.7569 3.74773 40.3396 3.11081 39.9223 2.47389C39.9223 2.45193 39.9004 2.42996 39.9004 2.42996C39.9004 2.42996 40.12 2.34211 40.142 2.34211C40.2518 2.32015 40.3836 2.29819 40.5153 2.32015C41.0644 2.36408 41.3499 2.73744 41.6794 3.08885C41.877 3.30848 42.0527 3.5281 42.2943 3.70381C42.6457 3.9454 42.9752 3.87951 43.3705 3.83558C44.6004 3.68184 45.8084 3.46222 47.0383 3.24259C47.0822 3.24259 47.1262 3.22063 47.1481 3.22063L44.5126 0.189759C44.5126 0.189759 45.3911 -0.337349 46.2696 0.365461C47.1701 1.09023 47.1261 1.06827 49.2126 2.84726C49.5201 2.78137 49.8276 2.73744 50.1131 2.67156C50.6402 2.5837 51.1453 2.47389 51.6724 2.38604C51.8701 2.34211 52.0678 2.32015 52.2654 2.34211C52.8365 2.36408 53.3636 2.51782 53.8028 2.91315C53.9785 3.06689 54.1323 3.24259 54.2201 3.46222C54.2421 3.50614 54.2421 3.55007 54.2641 3.59399C54.286 3.63792 54.2641 3.70381 54.2201 3.72577Z" fill="#FF5B00"/>
<path d="M9.87752 34.9129L6.78076 42.6219H8.82331C10.0093 42.6219 11.0635 41.8971 11.5028 40.777L11.6126 40.4695L12.9303 36.9774L13.4135 35.6816C12.1836 35.462 10.9976 35.2204 9.87752 34.9129ZM24.0216 31.0036L17.7182 15.3221L12.535 28.2362L11.371 31.1573C12.4032 31.5526 13.5234 31.926 14.7533 32.2115L15.7855 29.532L17.7182 24.4806L20.0463 30.5643L21.0346 33.1559C22.1328 33.2218 23.2748 33.2657 24.4608 33.2657C24.6146 33.2657 24.7463 33.2657 24.9001 33.2657L24.0216 31.0036ZM26.0202 35.9891C24.7463 36.0989 23.4945 36.1868 22.2426 36.2087L22.5281 36.9555L23.8898 40.4476L23.9776 40.7111C24.3949 41.8532 25.4931 42.6219 26.701 42.6219H28.6996L26.0202 35.9891Z" fill="#070BA0"/>
<path d="M47.0829 34.7372C47.0829 35.8134 46.8853 36.8457 46.49 37.7901C46.0946 38.7345 45.5456 39.569 44.8427 40.2719C44.1399 40.9747 43.3273 41.5457 42.4049 41.941C41.4824 42.3364 40.4721 42.556 39.396 42.556C38.3198 42.556 37.3315 42.3583 36.3871 41.941C35.4646 41.5457 34.63 40.9747 33.9492 40.2719C33.2464 39.569 32.6973 38.7345 32.302 37.7901C31.9067 36.8457 31.709 35.8354 31.709 34.7372C31.709 33.6611 31.9067 32.6288 32.302 31.6844C32.6973 30.74 33.2464 29.9054 33.9492 29.2026C34.652 28.4998 35.4646 27.9288 36.3871 27.5334C37.3095 27.1381 38.3198 26.9185 39.396 26.9185C40.2964 26.9185 41.131 27.0722 41.9217 27.3577C42.7123 27.6432 43.4371 28.0386 44.096 28.5657V18.8801C44.096 17.5623 45.1502 16.4861 46.468 16.4861H47.1049V34.7372H47.0829ZM39.396 39.5032C40.0329 39.5032 40.6479 39.3714 41.2189 39.1298C41.7899 38.8882 42.2951 38.5368 42.7124 38.0975C43.1296 37.6583 43.481 37.1531 43.7226 36.5821C43.9642 36.0111 44.096 35.3742 44.096 34.7372V34.7153C44.096 34.0564 43.9642 33.4414 43.7226 32.8704C43.481 32.2994 43.1516 31.7942 42.7124 31.355C42.2951 30.9157 41.7899 30.5863 41.2189 30.3227C40.6479 30.0811 40.0329 29.9493 39.396 29.9493C38.759 29.9493 38.1441 30.0811 37.5731 30.3227C37.002 30.5643 36.4969 30.9157 36.0796 31.355C35.6623 31.7942 35.3109 32.2994 35.0693 32.8704C34.8277 33.4634 34.6959 34.0784 34.6959 34.7153C34.6959 35.3742 34.8277 35.9891 35.0693 36.5601C35.3109 37.1531 35.6623 37.6583 36.0796 38.0756C36.4969 38.5148 37.002 38.8443 37.5731 39.1078C38.1661 39.3933 38.759 39.5032 39.396 39.5032Z" fill="#070BA0"/>
<path d="M56.6806 26.9185C57.7568 26.9185 58.7451 27.1161 59.6895 27.5334C60.6339 27.9507 61.4465 28.5217 62.1713 29.2246C62.8741 29.9274 63.4452 30.7839 63.8405 31.7503C64.2578 32.7166 64.4555 33.7489 64.4555 34.8251V42.4901H62.8741C62.0835 42.4901 61.4685 41.8532 61.4685 41.0625C60.8096 41.5676 60.0849 41.963 59.2942 42.2705C58.5035 42.556 57.647 42.7097 56.7245 42.7097C55.6484 42.7097 54.66 42.512 53.7156 42.0948C52.7712 41.6775 51.9586 41.1284 51.2558 40.4036C50.553 39.7008 50.0039 38.8662 49.5866 37.8999C49.1693 36.9335 48.9717 35.9232 48.9717 34.8251C48.9717 33.7489 49.1693 32.7166 49.5866 31.7503C50.0039 30.7839 50.553 29.9493 51.2338 29.2246C51.9367 28.5217 52.7493 27.9507 53.6937 27.5334C54.6161 27.1381 55.6044 26.9185 56.6806 26.9185ZM56.7026 39.6569C57.3615 39.6569 57.9764 39.5251 58.5475 39.2615C59.1185 38.998 59.6236 38.6466 60.0409 38.2293C60.4582 37.79 60.8096 37.2849 61.0512 36.6919C61.2928 36.0989 61.4246 35.4839 61.4246 34.8251C61.4246 34.1442 61.2928 33.5293 61.0512 32.9363C60.7877 32.3433 60.4582 31.8381 60.0409 31.3989C59.6236 30.9596 59.1185 30.6082 58.5475 30.3666C57.9764 30.1031 57.3615 29.9713 56.7026 29.9713C56.0437 29.9713 55.4287 30.1031 54.8577 30.3666C54.2867 30.6302 53.7815 30.9816 53.3642 31.3989C52.9469 31.8381 52.5955 32.3433 52.3539 32.9363C52.0904 33.5293 51.9806 34.1442 51.9806 34.8251C51.9806 35.4839 52.1124 36.0989 52.3539 36.6919C52.5955 37.2849 52.9469 37.79 53.3642 38.2293C53.7815 38.6686 54.2867 39.02 54.8577 39.2615C55.4068 39.5251 56.0437 39.6569 56.7026 39.6569Z" fill="#070BA0"/>
<path d="M78.5336 26.9404L73.4601 38.7564L71.8349 42.556L70.2096 38.7564L65.1362 26.9404H66.9372C67.8157 26.9404 68.6064 27.4675 68.9578 28.2802L71.8569 35.0008L74.6461 28.5437C75.0634 27.5774 76.0078 26.9404 77.0401 26.9404H78.5336Z" fill="#070BA0"/>
<path d="M82.7066 22.2404H83.695V25.2932H80.686V24.283C80.686 23.1629 81.5865 22.2404 82.7066 22.2404ZM83.695 42.534H80.686V29.1807C80.686 27.9288 81.6963 26.8965 82.9263 26.8965H83.673V42.534H83.695Z" fill="#070BA0"/>
<path d="M98.8716 43.127C99.223 43.149 99.5963 43.2368 99.9917 43.4125C100.387 43.5882 100.76 43.8518 101.112 44.2032C101.463 44.5546 101.749 45.0158 101.968 45.5649C102.188 46.1139 102.298 46.7948 102.298 47.5855C102.298 48.3981 102.188 49.0789 101.946 49.65C101.705 50.221 101.419 50.6602 101.068 51.0116C100.716 51.3631 100.343 51.6046 99.9258 51.7584C99.5085 51.9121 99.1351 52 98.7837 52H91.536C90.8332 51.978 90.1523 51.8902 89.4715 51.7145C88.7906 51.5388 88.1757 51.2532 87.6266 50.8799C87.0775 50.5065 86.6383 50.0453 86.3088 49.4962C85.9794 48.9471 85.8037 48.2883 85.8037 47.5415H87.8243C88.593 47.5415 88.4393 47.7831 89.0762 48.2224L89.2299 48.3322C89.5154 48.5299 89.8229 48.6616 90.1743 48.7495C90.5257 48.8373 90.9869 48.9252 91.558 48.9691H98.7398C99.1132 48.9252 99.2889 48.4859 99.2889 47.6294C99.2889 47.3219 99.2669 47.0803 99.223 46.9046C99.1791 46.7069 99.1132 46.5752 99.0473 46.4653C98.9814 46.3555 98.9155 46.2896 98.8496 46.2677C98.7837 46.2457 98.7618 46.2238 98.7398 46.2238H91.536C90.8332 46.2238 90.1523 46.1359 89.4715 45.9602C88.7906 45.7845 88.1757 45.5209 87.6266 45.1476C87.0775 44.7742 86.6383 44.313 86.3088 43.7639C85.9794 43.2149 85.8037 42.556 85.8037 41.7873C85.8037 40.9527 86.0014 40.2499 86.4406 39.6569C86.8579 39.0639 87.385 38.5807 88.0219 38.2293C87.5388 37.6363 87.1654 36.9774 86.8799 36.2307C86.6163 35.4839 86.4626 34.7152 86.4626 33.8807C86.4626 32.9363 86.6383 32.0358 86.9897 31.2232C87.3411 30.3886 87.8243 29.6638 88.4392 29.0488C89.0542 28.4339 89.757 27.9287 90.5696 27.5773C91.3823 27.2259 92.2388 27.0502 93.1832 27.0502H93.293H100.848V28.0166C100.848 29.1587 99.9258 30.0811 98.8057 30.0811C99.1571 30.6302 99.4207 31.2232 99.6183 31.882C99.816 32.519 99.9038 33.1998 99.9038 33.8807C99.9038 34.7811 99.7281 35.6377 99.3987 36.4503C99.0692 37.2629 98.63 37.9657 98.0589 38.5587C97.4879 39.1517 96.829 39.6569 96.0384 40.0302C95.2697 40.4036 94.4351 40.6232 93.5566 40.6891H93.1393H89.9766C89.6692 40.7989 89.3836 40.9307 89.142 41.1064C88.9005 41.2821 88.7687 41.5018 88.7687 41.7873C88.7687 42.1167 88.9005 42.3803 89.186 42.556C89.4715 42.7317 89.779 42.8634 90.1084 42.9733C90.4379 43.0611 90.8991 43.149 91.4701 43.1709H98.8716V43.127ZM93.2052 30.0372C92.7 30.0372 92.2168 30.147 91.7556 30.3227C91.2944 30.5204 90.8991 30.7839 90.5696 31.1353C90.2402 31.4867 89.9766 31.882 89.779 32.3433C89.5813 32.8045 89.4934 33.2877 89.4934 33.8148C89.4934 34.3199 89.5813 34.8251 89.779 35.2863C89.9766 35.7475 90.2402 36.1428 90.5696 36.4942C90.8991 36.8237 91.2944 37.0872 91.7556 37.2849C92.2168 37.4826 92.7 37.5704 93.2052 37.5704C93.7323 37.5704 94.2154 37.4826 94.6547 37.2849C95.094 37.0872 95.4893 36.8237 95.8407 36.4942C96.1701 36.1648 96.4557 35.7695 96.6314 35.2863C96.829 34.8251 96.9169 34.3419 96.9169 33.8148C96.9169 33.3096 96.829 32.8045 96.6314 32.3433C96.4337 31.882 96.1701 31.4648 95.8407 31.1353C95.4893 30.7839 95.1159 30.5204 94.6547 30.3227C94.2154 30.125 93.7103 30.0372 93.2052 30.0372Z" fill="#070BA0"/>
<path d="M109.369 26.8965C110.445 26.8965 111.433 27.0942 112.378 27.5115C113.3 27.9068 114.135 28.4778 114.815 29.1806C115.518 29.8835 116.067 30.718 116.463 31.6624C116.858 32.6068 117.056 33.6171 117.056 34.7153C117.056 35.7914 116.858 36.8237 116.463 37.7681C116.067 38.7125 115.518 39.5471 114.815 40.2499C114.113 40.9527 113.3 41.5237 112.378 41.9191C111.455 42.3144 110.445 42.534 109.369 42.534C108.292 42.534 107.304 42.3364 106.36 41.9191C105.437 41.5237 104.603 40.9527 103.922 40.2499C103.219 39.5471 102.67 38.7125 102.275 37.7681C101.879 36.8237 101.682 35.8134 101.682 34.7153C101.682 33.6391 101.879 32.6068 102.275 31.6624C102.67 30.718 103.219 29.8835 103.922 29.1806C104.625 28.4778 105.437 27.9068 106.36 27.5115C107.304 27.0942 108.292 26.8965 109.369 26.8965ZM109.391 39.4812C110.028 39.4812 110.642 39.3494 111.214 39.1078C111.785 38.8662 112.29 38.5148 112.707 38.0756C113.124 37.6363 113.476 37.1312 113.717 36.5601C113.959 35.9672 114.091 35.3522 114.091 34.7153C114.091 34.0564 113.959 33.4414 113.717 32.8704C113.476 32.2994 113.146 31.7723 112.707 31.355C112.29 30.9157 111.785 30.5863 111.214 30.3227C110.642 30.0811 110.028 29.9493 109.391 29.9493C108.754 29.9493 108.139 30.0811 107.568 30.3227C106.997 30.5643 106.491 30.9157 106.074 31.355C105.657 31.7942 105.306 32.2994 105.064 32.8704C104.822 33.4634 104.691 34.0784 104.691 34.7153C104.691 35.3742 104.822 35.9891 105.064 36.5601C105.306 37.1531 105.657 37.6583 106.074 38.0756C106.491 38.5148 106.997 38.8443 107.568 39.1078C108.139 39.3494 108.754 39.4812 109.391 39.4812Z" fill="#070BA0"/>
<path d="M122.569 21.3619H122.349C122.349 22.3063 121.954 23.1848 121.339 23.7997C120.724 24.4147 119.845 24.81 118.901 24.81C117.957 24.81 117.078 24.4147 116.463 23.7997C115.848 23.1848 115.453 22.3063 115.453 21.3619C115.453 20.4175 115.848 19.539 116.463 18.924C117.078 18.309 117.957 17.9137 118.901 17.9137C119.845 17.9137 120.724 18.309 121.339 18.924C121.954 19.539 122.349 20.4175 122.349 21.3619H122.569H122.789C122.789 19.2095 121.031 17.4525 118.879 17.4525C116.727 17.4525 114.97 19.2095 114.97 21.3619C114.97 23.5142 116.727 25.2712 118.879 25.2712C121.031 25.2712 122.789 23.5142 122.789 21.3619H122.569Z" fill="#070BA0"/>
<path d="M117.649 23.0091V19.4731H119.143C119.516 19.4731 119.802 19.495 119.956 19.5609C120.131 19.6268 120.263 19.7366 120.373 19.8904C120.483 20.0441 120.527 20.2418 120.527 20.4394C120.527 20.703 120.439 20.9226 120.285 21.0983C120.131 21.274 119.89 21.3838 119.582 21.4278C119.736 21.5156 119.868 21.6254 119.956 21.7133C120.065 21.8231 120.197 22.0208 120.351 22.2843L120.79 22.9652H119.934L119.428 22.1965C119.253 21.911 119.121 21.7572 119.055 21.6694C118.989 21.5815 118.923 21.5595 118.835 21.5156C118.77 21.4937 118.638 21.4717 118.484 21.4717H118.33V22.9432H117.649V23.0091ZM118.374 20.9666H118.901C119.253 20.9666 119.45 20.9446 119.538 20.9226C119.626 20.9007 119.692 20.8348 119.736 20.7689C119.78 20.703 119.802 20.6151 119.802 20.5053C119.802 20.3955 119.78 20.2857 119.714 20.2198C119.648 20.1539 119.56 20.11 119.45 20.088C119.384 20.088 119.209 20.0661 118.923 20.0661H118.374V20.9666Z" fill="#070BA0"/>
</svg>
