<svg width="24" height="24" viewBox="0 0 24 24" fill="none" xmlns="http://www.w3.org/2000/svg">
<path d="M10.3723 0C9.89356 0 9.51058 0.1 9.22334 0.3C8.93611 0.4 8.64888 0.6 8.36164 0.9L3.95739 5.3C3.67015 5.5 3.47866 5.8 3.28717 6.2C3.09568 6.6 2.99994 7.1 2.99994 7.5V20.9C2.99994 22.6 4.34036 24 5.96802 24H18.0319C19.6595 24 20.9999 22.6 20.9999 20.9V3.1C20.9999 1.4 19.6595 0 18.0319 0H10.3723ZM10.1808 19.2C8.2659 18.8 6.73398 17.1 6.351 15.1C5.77653 11.9 7.88292 9.1 10.7553 8.7C11.0425 8.7 11.3297 8.9 11.3297 9.3V13.5C11.3297 13.8 11.617 14.1 11.9042 14.1H15.9255C16.2127 14.1 16.4999 14.4 16.4999 14.7C16.0212 17.7 13.2446 19.9 10.1808 19.2ZM17.7446 12H13.7233C13.4361 12 13.1489 11.7 13.1489 11.4V7.3C13.1489 7 13.4361 6.7 13.7233 6.7C16.0212 7 17.8404 8.9 18.1276 11.3C18.3191 11.7 18.1276 12 17.7446 12Z" fill="white"/>
</svg>
