<svg width="24" height="24" viewBox="0 0 24 24" fill="none" xmlns="http://www.w3.org/2000/svg">
<g clip-path="url(#clip0_1481_16494)">
<path d="M23.6839 8.25836C23.4544 8.00654 23.1294 7.86289 22.7886 7.86289H1.21119C0.870473 7.86289 0.545378 8.00654 0.315849 8.25836C0.08632 8.51017 -0.0264459 8.84714 0.0051673 9.18641L1.15645 21.553C1.21446 22.1758 1.73699 22.6519 2.36247 22.6519H21.6373C22.2628 22.6519 22.7853 22.1757 22.8433 21.553L23.9946 9.18641C24.0262 8.84714 23.9135 8.51017 23.6839 8.25836ZM16.0398 20.1155C16.039 20.1154 16.0383 20.1154 16.0374 20.1155H7.96249C7.29353 20.1155 6.75126 19.5731 6.75126 18.9043C6.75126 17.2594 8.08943 15.9212 9.73428 15.9212H10.6036C9.70958 15.4273 9.1025 14.475 9.1025 13.3835C9.1025 11.7858 10.4023 10.4859 12 10.4859C13.5978 10.4859 14.8975 11.7857 14.8975 13.3835C14.8975 14.475 14.2905 15.4273 13.3965 15.9212H14.2658C15.8771 15.9212 17.194 17.2055 17.2471 18.8042C17.2498 18.8372 17.2512 18.8706 17.2512 18.9043C17.2511 19.5732 16.7088 20.1155 16.0398 20.1155ZM21.6697 5.60794C21.6697 6.10975 21.2629 6.51636 20.7612 6.51636H3.23868C2.73698 6.51636 2.33025 6.10975 2.33025 5.60794C2.33025 5.10612 2.73698 4.69951 3.23868 4.69951H20.7612C21.2629 4.69951 21.6697 5.10612 21.6697 5.60794ZM19.2714 2.25681C19.2714 2.75863 18.8647 3.16524 18.363 3.16524H5.63692C5.13523 3.16524 4.7285 2.75863 4.7285 2.25681C4.7285 1.755 5.13523 1.34839 5.63692 1.34839H18.3629C18.8647 1.34839 19.2714 1.755 19.2714 2.25681Z" fill="white"/>
</g>
<defs>
<clipPath id="clip0_1481_16494">
<rect width="24" height="24" fill="white"/>
</clipPath>
</defs>
</svg>
