<svg width="24" height="24" viewBox="0 0 24 24" fill="none" xmlns="http://www.w3.org/2000/svg">
<g clip-path="url(#clip0_1481_16482)">
<path d="M8.01744 0.75H3.23244C1.86139 0.75 0.749939 1.86145 0.749939 3.2325V8.0175C0.749939 9.38855 1.86139 10.5 3.23244 10.5H8.01744C9.38849 10.5 10.4999 9.38855 10.4999 8.0175V3.2325C10.4999 1.86145 9.38849 0.75 8.01744 0.75Z" fill="white"/>
<path d="M20.7674 0.75H15.9824C14.6114 0.75 13.4999 1.86145 13.4999 3.2325V8.0175C13.4999 9.38855 14.6114 10.5 15.9824 10.5H20.7674C22.1385 10.5 23.2499 9.38855 23.2499 8.0175V3.2325C23.2499 1.86145 22.1385 0.75 20.7674 0.75Z" fill="white"/>
<path d="M8.01744 13.5H3.23244C1.86139 13.5 0.749939 14.6115 0.749939 15.9825V20.7675C0.749939 22.1385 1.86139 23.25 3.23244 23.25H8.01744C9.38849 23.25 10.4999 22.1385 10.4999 20.7675V15.9825C10.4999 14.6115 9.38849 13.5 8.01744 13.5Z" fill="white"/>
<path d="M18.3749 23.25C21.0673 23.25 23.2499 21.0674 23.2499 18.375C23.2499 15.6826 21.0673 13.5 18.3749 13.5C15.6826 13.5 13.4999 15.6826 13.4999 18.375C13.4999 21.0674 15.6826 23.25 18.3749 23.25Z" fill="white"/>
</g>
<defs>
<clipPath id="clip0_1481_16482">
<rect width="24" height="24" fill="white"/>
</clipPath>
</defs>
</svg>
