<svg width="24" height="24" viewBox="0 0 24 24" fill="none" xmlns="http://www.w3.org/2000/svg">
<g clip-path="url(#clip0_1481_16506)">
<path d="M8.99994 0H4.99994C3.67386 0 2.40209 0.526784 1.46441 1.46447C0.526723 2.40215 -6.10352e-05 3.67392 -6.10352e-05 5L-6.10352e-05 19C-6.10352e-05 19.6566 0.129268 20.3068 0.380541 20.9134C0.631815 21.52 1.00011 22.0712 1.46441 22.5355C2.40209 23.4732 3.67386 24 4.99994 24H13.9999V5C13.9999 4.34339 13.8706 3.69321 13.6193 3.08658C13.3681 2.47995 12.9998 1.92876 12.5355 1.46447C12.0712 1.00017 11.52 0.631876 10.9134 0.380602C10.3067 0.129329 9.65655 0 8.99994 0V0ZM4.99994 19H3.99994C3.73472 19 3.48037 18.8946 3.29283 18.7071C3.1053 18.5196 2.99994 18.2652 2.99994 18C2.99994 17.7348 3.1053 17.4804 3.29283 17.2929C3.48037 17.1054 3.73472 17 3.99994 17H4.99994C5.26516 17 5.51951 17.1054 5.70705 17.2929C5.89458 17.4804 5.99994 17.7348 5.99994 18C5.99994 18.2652 5.89458 18.5196 5.70705 18.7071C5.51951 18.8946 5.26516 19 4.99994 19ZM4.99994 15H3.99994C3.73472 15 3.48037 14.8946 3.29283 14.7071C3.1053 14.5196 2.99994 14.2652 2.99994 14C2.99994 13.7348 3.1053 13.4804 3.29283 13.2929C3.48037 13.1054 3.73472 13 3.99994 13H4.99994C5.26516 13 5.51951 13.1054 5.70705 13.2929C5.89458 13.4804 5.99994 13.7348 5.99994 14C5.99994 14.2652 5.89458 14.5196 5.70705 14.7071C5.51951 14.8946 5.26516 15 4.99994 15ZM4.99994 11H3.99994C3.73472 11 3.48037 10.8946 3.29283 10.7071C3.1053 10.5196 2.99994 10.2652 2.99994 10C2.99994 9.73478 3.1053 9.48043 3.29283 9.29289C3.48037 9.10536 3.73472 9 3.99994 9H4.99994C5.26516 9 5.51951 9.10536 5.70705 9.29289C5.89458 9.48043 5.99994 9.73478 5.99994 10C5.99994 10.2652 5.89458 10.5196 5.70705 10.7071C5.51951 10.8946 5.26516 11 4.99994 11ZM4.99994 7H3.99994C3.73472 7 3.48037 6.89464 3.29283 6.70711C3.1053 6.51957 2.99994 6.26522 2.99994 6C2.99994 5.73478 3.1053 5.48043 3.29283 5.29289C3.48037 5.10536 3.73472 5 3.99994 5H4.99994C5.26516 5 5.51951 5.10536 5.70705 5.29289C5.89458 5.48043 5.99994 5.73478 5.99994 6C5.99994 6.26522 5.89458 6.51957 5.70705 6.70711C5.51951 6.89464 5.26516 7 4.99994 7ZM9.99994 19H8.99994C8.73472 19 8.48037 18.8946 8.29283 18.7071C8.1053 18.5196 7.99994 18.2652 7.99994 18C7.99994 17.7348 8.1053 17.4804 8.29283 17.2929C8.48037 17.1054 8.73472 17 8.99994 17H9.99994C10.2652 17 10.5195 17.1054 10.707 17.2929C10.8946 17.4804 10.9999 17.7348 10.9999 18C10.9999 18.2652 10.8946 18.5196 10.707 18.7071C10.5195 18.8946 10.2652 19 9.99994 19ZM9.99994 15H8.99994C8.73472 15 8.48037 14.8946 8.29283 14.7071C8.1053 14.5196 7.99994 14.2652 7.99994 14C7.99994 13.7348 8.1053 13.4804 8.29283 13.2929C8.48037 13.1054 8.73472 13 8.99994 13H9.99994C10.2652 13 10.5195 13.1054 10.707 13.2929C10.8946 13.4804 10.9999 13.7348 10.9999 14C10.9999 14.2652 10.8946 14.5196 10.707 14.7071C10.5195 14.8946 10.2652 15 9.99994 15ZM9.99994 11H8.99994C8.73472 11 8.48037 10.8946 8.29283 10.7071C8.1053 10.5196 7.99994 10.2652 7.99994 10C7.99994 9.73478 8.1053 9.48043 8.29283 9.29289C8.48037 9.10536 8.73472 9 8.99994 9H9.99994C10.2652 9 10.5195 9.10536 10.707 9.29289C10.8946 9.48043 10.9999 9.73478 10.9999 10C10.9999 10.2652 10.8946 10.5196 10.707 10.7071C10.5195 10.8946 10.2652 11 9.99994 11ZM9.99994 7H8.99994C8.73472 7 8.48037 6.89464 8.29283 6.70711C8.1053 6.51957 7.99994 6.26522 7.99994 6C7.99994 5.73478 8.1053 5.48043 8.29283 5.29289C8.48037 5.10536 8.73472 5 8.99994 5H9.99994C10.2652 5 10.5195 5.10536 10.707 5.29289C10.8946 5.48043 10.9999 5.73478 10.9999 6C10.9999 6.26522 10.8946 6.51957 10.707 6.70711C10.5195 6.89464 10.2652 7 9.99994 7ZM18.9999 5H15.9999V24H18.9999C20.3255 23.9984 21.5964 23.4711 22.5337 22.5338C23.4711 21.5964 23.9984 20.3256 23.9999 19V10C23.9984 8.6744 23.4711 7.40356 22.5337 6.46622C21.5964 5.52888 20.3255 5.00159 18.9999 5V5ZM19.9999 19C19.8022 19 19.6088 18.9414 19.4444 18.8315C19.2799 18.7216 19.1517 18.5654 19.0761 18.3827C19.0004 18.2 18.9806 17.9989 19.0192 17.8049C19.0577 17.6109 19.153 17.4327 19.2928 17.2929C19.4327 17.153 19.6109 17.0578 19.8048 17.0192C19.9988 16.9806 20.1999 17.0004 20.3826 17.0761C20.5653 17.1518 20.7215 17.28 20.8314 17.4444C20.9413 17.6089 20.9999 17.8022 20.9999 18C20.9999 18.2652 20.8946 18.5196 20.707 18.7071C20.5195 18.8946 20.2652 19 19.9999 19ZM19.9999 15C19.8022 15 19.6088 14.9414 19.4444 14.8315C19.2799 14.7216 19.1517 14.5654 19.0761 14.3827C19.0004 14.2 18.9806 13.9989 19.0192 13.8049C19.0577 13.6109 19.153 13.4327 19.2928 13.2929C19.4327 13.153 19.6109 13.0578 19.8048 13.0192C19.9988 12.9806 20.1999 13.0004 20.3826 13.0761C20.5653 13.1518 20.7215 13.28 20.8314 13.4444C20.9413 13.6089 20.9999 13.8022 20.9999 14C20.9999 14.2652 20.8946 14.5196 20.707 14.7071C20.5195 14.8946 20.2652 15 19.9999 15ZM19.9999 11C19.8022 11 19.6088 10.9414 19.4444 10.8315C19.2799 10.7216 19.1517 10.5654 19.0761 10.3827C19.0004 10.2 18.9806 9.99889 19.0192 9.80491C19.0577 9.61093 19.153 9.43275 19.2928 9.29289C19.4327 9.15304 19.6109 9.0578 19.8048 9.01921C19.9988 8.98063 20.1999 9.00043 20.3826 9.07612C20.5653 9.15181 20.7215 9.27998 20.8314 9.44443C20.9413 9.60888 20.9999 9.80222 20.9999 10C20.9999 10.2652 20.8946 10.5196 20.707 10.7071C20.5195 10.8946 20.2652 11 19.9999 11Z" fill="white"/>
</g>
<defs>
<clipPath id="clip0_1481_16506">
<rect width="24" height="24" fill="white"/>
</clipPath>
</defs>
</svg>
