<svg width="24" height="24" viewBox="0 0 24 24" fill="none" xmlns="http://www.w3.org/2000/svg">
<path fill-rule="evenodd" clip-rule="evenodd" d="M22.0315 14.1111C21.278 13.6771 20.8101 12.8684 20.8101 11.9998C20.8101 11.1317 21.278 10.323 22.0293 9.88939C22.8004 9.44609 23.1211 8.525 22.7916 7.69943C22.3786 6.6566 21.8162 5.68259 21.1242 4.80406C20.5728 4.10459 19.6151 3.9214 18.844 4.36756C18.0927 4.80406 17.1569 4.80537 16.4034 4.37084C15.6521 3.93631 15.1864 3.12635 15.1886 2.25621C15.1886 1.36606 14.5515 0.627308 13.6706 0.499902C12.5635 0.339542 11.4387 0.340433 10.3271 0.503183C9.44843 0.63148 8.8114 1.36981 8.81355 2.25818C8.81355 3.12725 8.3478 3.93673 7.59654 4.37084C6.84302 4.8049 5.90941 4.80401 5.15594 4.36798C4.3849 3.92182 3.4271 4.1059 2.87571 4.80537C2.53301 5.24121 2.21665 5.70715 1.93769 6.19109C1.65869 6.67418 1.41485 7.18053 1.20837 7.69521C0.876631 8.52209 1.1974 9.4445 1.96844 9.88892C2.72196 10.3226 3.18987 11.1316 3.18987 11.9998C3.18987 12.868 2.72196 13.6764 1.97065 14.1107C1.1996 14.554 0.878881 15.4746 1.20837 16.3C1.62138 17.3434 2.18374 18.3175 2.87571 19.1955C3.4271 19.895 4.3849 20.0782 5.15594 19.632C5.90726 19.1955 6.84307 19.1946 7.59654 19.6287C8.3478 20.0633 8.81355 20.8732 8.81355 21.7434C8.81135 22.6333 9.45058 23.372 10.3293 23.4997C10.8807 23.5795 11.4343 23.6192 11.9878 23.6192C12.5502 23.6192 13.1126 23.5783 13.6728 23.4964C14.5515 23.3679 15.1885 22.6302 15.1885 21.7418C15.1863 20.8723 15.652 20.0628 16.4033 19.6287C17.1568 19.1947 18.0904 19.1956 18.8439 19.6316C19.615 20.0778 20.5728 19.8941 21.1241 19.1942C21.4668 18.7581 21.7832 18.2922 22.0622 17.8089C22.339 17.3259 22.5872 16.8195 22.7915 16.3044C23.1233 15.4775 22.8026 14.5549 22.0315 14.1111ZM14.9887 13.7258C14.5295 14.5242 13.7848 15.0955 12.893 15.3341C12.0033 15.5727 11.0718 15.4503 10.2744 14.989C8.62685 14.0373 8.06008 11.9225 9.01127 10.2738C9.64835 9.16793 10.8126 8.5489 12.0055 8.5489C12.592 8.5489 13.183 8.6974 13.7255 9.01067C15.3731 9.96209 15.9399 12.0776 14.9887 13.7258Z" fill="white"/>
</svg>
