<svg width="24" height="24" viewBox="0 0 24 24" fill="none" xmlns="http://www.w3.org/2000/svg">
<g clip-path="url(#clip0_1481_16501)">
<path d="M23.3465 3.38754C23.218 2.59067 22.4291 1.8641 21.6421 1.80879C16.9644 1.51442 14.4374 3.1977 13.0551 4.53645C12.7733 4.82271 12.6166 5.20914 12.6196 5.61082C12.6471 10.9008 12.639 16.1907 12.5952 21.4804C12.5924 22.1005 13.2412 22.4464 13.708 22.0616C15.2108 20.8054 17.8551 19.5177 22.1605 18.9566C22.9279 18.8497 23.6137 18.1789 23.6929 17.4435C24.1963 12.7633 24.0798 8.03721 23.3465 3.38754V3.38754Z" fill="white"/>
<path d="M1.83694 18.9561C6.14241 19.5186 8.78663 20.8025 10.2894 22.0616C10.754 22.4493 11.4046 22.1029 11.4023 21.4804C11.3582 16.1913 11.3501 10.9014 11.3779 5.61082C11.3798 5.41187 11.3423 5.2145 11.2675 5.0301C11.1928 4.84571 11.0823 4.67793 10.9424 4.53645C9.56241 3.1977 7.0335 1.51442 2.35772 1.80879C1.57116 1.86176 0.782253 2.5902 0.653347 3.38754C-0.0799962 8.038 -0.19647 12.7649 0.306941 17.4458C0.387566 18.1789 1.07194 18.8521 1.83694 18.9561V18.9561Z" fill="white"/>
</g>
<defs>
<clipPath id="clip0_1481_16501">
<rect width="24" height="24" fill="white"/>
</clipPath>
</defs>
</svg>
