<svg width="24" height="24" viewBox="0 0 24 24" fill="none" xmlns="http://www.w3.org/2000/svg">
<path d="M18.3187 0H4.18119C2.70211 0 1.49994 1.233 1.49994 2.75V21.25C1.49994 22.767 2.70211 24 4.18119 24H18.3187C19.7978 24 20.9999 22.767 20.9999 21.25V2.75C20.9999 1.233 19.7978 0 18.3187 0ZM9.08544 18.72C9.37111 19.013 9.37111 19.488 9.08544 19.781C8.94309 19.927 8.75589 20 8.56869 20C8.38149 20 8.19429 19.927 8.05194 19.78L7.34994 19.061L6.64794 19.781C6.50559 19.927 6.31839 20 6.13119 20C5.94399 20 5.75679 19.927 5.61444 19.78C5.32876 19.487 5.32876 19.012 5.61444 18.719L6.31546 18L5.61346 17.28C5.32779 16.987 5.32779 16.512 5.61346 16.219C5.89914 15.926 6.36226 15.926 6.64794 16.219L7.34994 16.939L8.05194 16.219C8.33761 15.926 8.80074 15.926 9.08641 16.219C9.37209 16.512 9.37209 16.987 9.08641 17.28L8.38441 18L9.08544 18.72ZM8.56869 12.75H8.08119V13.25C8.08119 13.664 7.75359 14 7.34994 14C6.94629 14 6.61869 13.664 6.61869 13.25V12.75H6.13119C5.72754 12.75 5.39994 12.414 5.39994 12C5.39994 11.586 5.72754 11.25 6.13119 11.25H6.61869V10.75C6.61869 10.336 6.94629 10 7.34994 10C7.75359 10 8.08119 10.336 8.08119 10.75V11.25H8.56869C8.97234 11.25 9.29994 11.586 9.29994 12C9.29994 12.414 8.97234 12.75 8.56869 12.75ZM16.3687 20H13.9312C13.5275 20 13.1999 19.664 13.1999 19.25C13.1999 18.836 13.5275 18.5 13.9312 18.5H16.3687C16.7723 18.5 17.0999 18.836 17.0999 19.25C17.0999 19.664 16.7723 20 16.3687 20ZM16.3687 17.5H13.9312C13.5275 17.5 13.1999 17.164 13.1999 16.75C13.1999 16.336 13.5275 16 13.9312 16H16.3687C16.7723 16 17.0999 16.336 17.0999 16.75C17.0999 17.164 16.7723 17.5 16.3687 17.5ZM16.3687 13H13.9312C13.5275 13 13.1999 12.664 13.1999 12.25C13.1999 11.836 13.5275 11.5 13.9312 11.5H16.3687C16.7723 11.5 17.0999 11.836 17.0999 12.25C17.0999 12.664 16.7723 13 16.3687 13ZM18.0749 6.25C18.0749 7.215 17.3096 8 16.3687 8H6.13119C5.19031 8 4.42494 7.215 4.42494 6.25V4.75C4.42494 3.785 5.19031 3 6.13119 3H16.3687C17.3096 3 18.0749 3.785 18.0749 4.75V6.25Z" fill="white"/>
</svg>
