<svg width="24" height="24" viewBox="0 0 24 24" fill="none" xmlns="http://www.w3.org/2000/svg">
<g clip-path="url(#clip0_1481_16496)">
<path d="M23.9999 12C23.9999 18.6171 18.8088 24 12.4274 24C7.70582 24 3.50003 21.072 1.71208 16.5411C1.53932 16.1023 1.74184 15.6017 2.16423 15.4226C2.5858 15.2443 3.06937 15.4543 3.24213 15.8914C4.77466 19.776 8.37951 22.2857 12.4266 22.2857C17.8963 22.2857 22.3459 17.6717 22.3459 12C22.3459 6.32828 17.8963 1.71429 12.4266 1.71429C8.37207 1.71429 4.78128 4.23514 3.25784 8.06657L3.66287 7.68171C3.9993 7.362 4.52255 7.386 4.83087 7.73486C5.1392 8.08371 5.11688 8.62629 4.77962 8.946L2.5825 11.0349C2.42875 11.1806 2.22871 11.2603 2.02371 11.2603C1.97494 11.2603 1.927 11.256 1.87823 11.2466C1.62446 11.1994 1.40623 11.0331 1.28885 10.7957L0.0919232 8.38543C-0.117209 7.96457 0.0423267 7.44771 0.448192 7.23086C0.854883 7.01057 1.3525 7.17857 1.56163 7.60029L1.62032 7.71857C3.32727 3.07971 7.59175 0 12.4274 0C18.8088 0 23.9999 5.38286 23.9999 12ZM4.97057 11.9306C4.97057 7.66971 8.30098 4.21629 12.4101 4.21629C16.5191 4.21629 19.8495 7.66971 19.8495 11.9306C19.8495 16.1914 16.5191 19.6449 12.4101 19.6449C8.30098 19.6449 4.97057 16.1914 4.97057 11.9306ZM11.5834 11.9306C11.5834 12.1997 11.7058 12.4543 11.9141 12.6163L15.2205 15.1877C15.3693 15.3034 15.5437 15.3591 15.7157 15.3591C15.967 15.3591 16.2149 15.2409 16.3778 15.0163C16.6522 14.6383 16.5778 14.1009 16.2125 13.8171L13.2367 11.5029V7.64571C13.2367 7.17171 12.8663 6.78857 12.4101 6.78857C11.9538 6.78857 11.5834 7.17171 11.5834 7.64571V11.9306Z" fill="white"/>
</g>
<defs>
<clipPath id="clip0_1481_16496">
<rect width="24" height="24" fill="white"/>
</clipPath>
</defs>
</svg>
