<svg width="24" height="24" viewBox="0 0 24 24" fill="none" xmlns="http://www.w3.org/2000/svg">
<path d="M15.2286 5.41125H8.77864C8.16589 5.41125 7.66864 4.914 7.66864 4.30125V2.61C7.66864 1.99725 8.16589 1.5 8.77864 1.5H15.2286C15.8414 1.5 16.3386 1.99725 16.3386 2.61V4.30125C16.3386 4.91475 15.8414 5.41125 15.2286 5.41125Z" fill="white"/>
<path d="M18.4049 3.45752H17.4637V4.30127C17.4637 5.53352 16.4609 6.53627 15.2287 6.53627H8.77868C7.54568 6.53627 6.54368 5.53352 6.54368 4.30127V3.45752H5.60993C4.12493 3.45752 2.92493 4.65752 2.92493 6.14252V19.815C2.92493 21.3 4.12493 22.5 5.60993 22.5H18.3899C19.8749 22.5 21.0749 21.3 21.0749 19.815V6.14252C21.0749 4.65002 19.8899 3.45752 18.4049 3.45752ZM10.8359 14.5823H7.58243C7.20968 14.5823 6.90743 14.28 6.90743 13.9073C6.90743 13.5345 7.20968 13.2323 7.58243 13.2323H10.8359C11.2087 13.2323 11.5109 13.5345 11.5109 13.9073C11.5109 14.28 11.2087 14.5823 10.8359 14.5823ZM14.8199 10.7513H7.58243C7.20968 10.7513 6.90743 10.449 6.90743 10.0763C6.90743 9.70352 7.20968 9.40127 7.58243 9.40127H14.8192C15.1919 9.40127 15.4942 9.70352 15.4942 10.0763C15.4942 10.449 15.1927 10.7513 14.8199 10.7513Z" fill="white"/>
</svg>
