<svg width="24" height="24" viewBox="0 0 24 24" fill="none" xmlns="http://www.w3.org/2000/svg">
<g clip-path="url(#clip0_1481_16508)">
<path d="M20.5354 12.812H18.6794C18.8685 13.33 18.9719 13.889 18.9719 14.4716V21.4864C18.9719 21.7293 18.9296 21.9625 18.8527 22.1793H21.9212C23.0674 22.1793 23.9999 21.2468 23.9999 20.1006V16.2765C24 14.3662 22.4458 12.812 20.5354 12.812Z" fill="white"/>
<path d="M5.028 14.4716C5.028 13.8889 5.13135 13.33 5.32054 12.812H3.46448C1.55413 12.812 -6.10352e-05 14.3662 -6.10352e-05 16.2765V20.1007C-6.10352e-05 21.2469 0.932425 22.1794 2.07866 22.1794H5.1472C5.07028 21.9624 5.028 21.7293 5.028 21.4864V14.4716Z" fill="white"/>
<path d="M14.1216 11.0068H9.87839C7.96804 11.0068 6.41385 12.561 6.41385 14.4714V21.4862C6.41385 21.8689 6.72407 22.1791 7.10676 22.1791H16.8932C17.2759 22.1791 17.5862 21.8689 17.5862 21.4862V14.4714C17.5862 12.561 16.032 11.0068 14.1216 11.0068Z" fill="white"/>
<path d="M12 1.8208C9.70256 1.8208 7.83347 3.6899 7.83347 5.98739C7.83347 7.54575 8.69358 8.90677 9.9638 9.62133C10.5663 9.96024 11.2609 10.1539 12 10.1539C12.7391 10.1539 13.4337 9.96024 14.0362 9.62133C15.3065 8.90677 16.1665 7.5457 16.1665 5.98739C16.1665 3.68994 14.2974 1.8208 12 1.8208Z" fill="white"/>
<path d="M4.68362 5.7041C2.96541 5.7041 1.5676 7.10192 1.5676 8.82012C1.5676 10.5383 2.96541 11.9361 4.68362 11.9361C5.11946 11.9361 5.53449 11.8459 5.91151 11.6836C6.56336 11.4029 7.10083 10.9062 7.43341 10.2839C7.66684 9.84716 7.79964 9.34892 7.79964 8.82012C7.79964 7.10196 6.40182 5.7041 4.68362 5.7041Z" fill="white"/>
<path d="M19.3163 5.7041C17.5981 5.7041 16.2003 7.10192 16.2003 8.82012C16.2003 9.34897 16.3331 9.8472 16.5665 10.2839C16.8991 10.9062 17.4366 11.403 18.0884 11.6836C18.4654 11.8459 18.8805 11.9361 19.3163 11.9361C21.0345 11.9361 22.4323 10.5383 22.4323 8.82012C22.4323 7.10192 21.0345 5.7041 19.3163 5.7041Z" fill="white"/>
</g>
<defs>
<clipPath id="clip0_1481_16508">
<rect width="24" height="24" fill="white"/>
</clipPath>
</defs>
</svg>
