<svg width="24" height="24" viewBox="0 0 24 24" fill="none" xmlns="http://www.w3.org/2000/svg">
<g clip-path="url(#clip0_1481_16477)">
<path d="M22.4233 3H18.165C18.0414 3 17.9218 3.04702 17.8276 3.13268L16.4892 4.34825C16.2153 4.59711 15.8134 4.59593 15.5407 4.34537L14.2206 3.13268C14.1179 3.04414 14.0043 3 13.8808 3H1.58685C0.710632 3 -6.10352e-05 3.76227 -6.10352e-05 4.70267V8.61659C-6.10352e-05 9.25785 0.391785 9.81082 0.999939 10.0319C1.63861 10.253 2.06097 10.8832 2.06097 11.6019C2.06097 12.3206 1.63861 12.9508 0.999939 13.1719C0.391785 13.393 -6.10352e-05 13.946 -6.10352e-05 14.5872V19.2972C-6.10352e-05 20.2376 0.710632 21 1.5871 21H13.8808C14.0078 21 14.1301 20.9511 14.226 20.8623L15.5375 19.6494C15.8115 19.3961 16.2167 19.3954 16.4911 19.6478L17.8171 20.8672C17.9203 20.9557 18.0336 21 18.1572 21H22.413C23.2895 21 23.9999 20.2377 23.9999 19.2973V14.5872C23.9999 13.946 23.6086 13.393 23.0004 13.1719C22.3618 12.9508 21.9391 12.3206 21.9391 11.6019C21.9391 10.8832 22.3618 10.253 23.0004 10.0319C23.6086 9.81082 23.9999 9.25785 23.9999 8.61659V4.69167C23.9999 3.76123 23.2905 3 22.4233 3ZM10.9609 12.2993L10.3588 12.9285L10.4902 13.8641C10.5665 14.4089 10.1833 14.8907 9.68011 14.8907C9.54877 14.8907 9.41766 14.8575 9.29437 14.7913L8.55341 14.369L7.7663 14.7913C7.48871 14.9487 7.15692 14.9238 6.90228 14.725C6.6474 14.5264 6.52411 14.1952 6.5705 13.8641L6.71698 12.9699L6.09955 12.2993C5.87592 12.0593 5.79877 11.7199 5.8913 11.3969C5.99164 11.0741 6.24652 10.8422 6.55511 10.8009L7.38837 10.6684L7.7973 9.8323C7.93622 9.52595 8.21381 9.34377 8.53021 9.33551C8.84662 9.33551 9.12445 9.52595 9.26337 9.8323L9.64154 10.6353L10.5056 10.8009C10.8144 10.8422 11.069 11.0741 11.1691 11.3969C11.2619 11.7199 11.1845 12.0593 10.9609 12.2993ZM16.9404 12.8691C16.9404 13.4616 16.4931 13.942 15.9404 13.942C15.3876 13.942 14.9404 13.4616 14.9404 12.8691V11.1308C14.9404 10.5383 15.3876 10.0578 15.9404 10.0578C16.4931 10.0578 16.9404 10.5383 16.9404 11.1308V12.8691Z" fill="white"/>
</g>
<defs>
<clipPath id="clip0_1481_16477">
<rect width="24" height="24" fill="white"/>
</clipPath>
</defs>
</svg>
