<svg width="24" height="24" viewBox="0 0 24 24" fill="none" xmlns="http://www.w3.org/2000/svg">
<path fill-rule="evenodd" clip-rule="evenodd" d="M22.8837 4.18605V19.814C22.8837 22.1257 21.0094 24 18.6976 24H5.30229C2.99045 24 1.11624 22.1257 1.11624 19.814V4.18605C1.11624 1.87421 2.99045 0 5.30229 0H18.6976C21.0094 0 22.8837 1.87421 22.8837 4.18605ZM17.5814 8.93023H6.41857C5.95643 8.93023 5.58136 9.3053 5.58136 9.76744C5.58136 10.2296 5.95643 10.6047 6.41857 10.6047H17.5814C18.0435 10.6047 18.4186 10.2296 18.4186 9.76744C18.4186 9.3053 18.0435 8.93023 17.5814 8.93023ZM17.5814 13.3953H6.41857C5.95643 13.3953 5.58136 13.7704 5.58136 14.2326C5.58136 14.6947 5.95643 15.0698 6.41857 15.0698H17.5814C18.0435 15.0698 18.4186 14.6947 18.4186 14.2326C18.4186 13.7704 18.0435 13.3953 17.5814 13.3953ZM12 4.46512H6.41857C5.95643 4.46512 5.58136 4.84019 5.58136 5.30233C5.58136 5.76447 5.95643 6.13954 6.41857 6.13954H12C12.4621 6.13954 12.8372 5.76447 12.8372 5.30233C12.8372 4.84019 12.4621 4.46512 12 4.46512ZM17.5814 17.8605H6.41857C5.95643 17.8605 5.58136 18.2355 5.58136 18.6977C5.58136 19.1598 5.95643 19.5349 6.41857 19.5349H17.5814C18.0435 19.5349 18.4186 19.1598 18.4186 18.6977C18.4186 18.2355 18.0435 17.8605 17.5814 17.8605Z" fill="white"/>
</svg>
