<svg width="24" height="24" viewBox="0 0 24 24" fill="none" xmlns="http://www.w3.org/2000/svg">
<g clip-path="url(#clip0_1481_16504)">
<path d="M23.1299 18.09L21.5199 19.7C21.3199 19.9 21.0699 19.99 20.8099 19.99C20.5499 19.99 20.2999 19.89 20.0999 19.7C19.7099 19.31 19.7099 18.68 20.0999 18.29L21.3899 17H13.9899C13.4399 17 12.9899 16.55 12.9899 16C12.9899 15.45 13.4399 15 13.9899 15H21.3899L20.0999 13.71C19.7099 13.32 19.7099 12.69 20.0999 12.3C20.4899 11.91 21.1199 11.91 21.5099 12.3L23.1199 13.91C24.2699 15.06 24.2699 16.94 23.1199 18.1L23.1299 18.09ZM12.9999 8H19.5399C19.1899 7.09 18.6599 6.25 17.9499 5.54L14.4699 2.05C13.7599 1.34 12.9199 0.81 12.0099 0.46V7C12.0099 7.55 12.4599 8 13.0099 8H12.9999ZM17.8099 19H13.9999C12.3499 19 10.9999 17.65 10.9999 16C10.9999 14.35 12.3499 13 13.9999 13H17.8099C17.8099 12.23 18.0999 11.46 18.6899 10.88C19.0599 10.51 19.5099 10.25 19.9799 10.12V10H12.9999C11.3499 10 9.99994 8.65 9.99994 7V0.02C9.83994 0.01 9.67994 0 9.50994 0H4.99994C2.23994 0 -6.10352e-05 2.24 -6.10352e-05 5V19C-6.10352e-05 21.76 2.23994 24 4.99994 24H14.9999C16.8099 24 18.3999 23.03 19.2799 21.58C19.0699 21.45 18.8699 21.3 18.6899 21.12C18.1099 20.54 17.8099 19.77 17.8099 19Z" fill="white"/>
</g>
<defs>
<clipPath id="clip0_1481_16504">
<rect width="24" height="24" fill="white"/>
</clipPath>
</defs>
</svg>
