<svg width="24" height="24" viewBox="0 0 24 24" fill="none" xmlns="http://www.w3.org/2000/svg">
<g clip-path="url(#clip0_1481_16470)">
<path d="M14.9998 13C14.4468 13 13.9999 13.4481 13.9999 14V18.0001C13.9999 18.551 13.5518 19 12.9997 19H9.99977V4.00014C9.99977 3.14615 9.45577 2.38315 8.63785 2.09916L8.34177 2.0001H12.9997C13.5518 2.0001 13.9999 2.44907 13.9999 3.00021V6.00018C13.9999 6.55206 14.4468 7.00011 14.9998 7.00011C15.5528 7.00011 15.9997 6.55206 15.9997 6.00018V3.00021C15.9997 1.34624 14.6537 0.000244141 12.9997 0.000244141H2.24992C2.21183 0.000244141 2.17997 0.0172728 2.14298 0.0222166C2.09483 0.0181883 2.04887 0.000244141 1.99998 0.000244141C0.896963 0.000244141 -6.10352e-05 0.897085 -6.10352e-05 2.0001V19.9999C-6.10352e-05 20.8539 0.54394 21.6169 1.36186 21.9009L7.37993 23.907C7.5839 23.97 7.78678 24 7.99992 24C9.10293 24 9.99977 23.103 9.99977 22V21H12.9997C14.6537 21 15.9997 19.654 15.9997 18.0001V14C15.9997 13.4481 15.5528 13 14.9998 13V13Z" fill="white"/>
<path d="M23.7068 9.29317L19.7067 5.29327C19.4209 5.00726 18.9908 4.9212 18.6169 5.07611C18.2439 5.2312 17.9998 5.59612 17.9998 6.00023V9.0002H13.9999C13.4478 9.0002 12.9998 9.44807 12.9998 10.0001C12.9998 10.5522 13.4478 11.0001 13.9999 11.0001H17.9998V14C17.9998 14.4041 18.2439 14.7691 18.6169 14.9241C18.9908 15.0791 19.4209 14.993 19.7067 14.7072L23.7068 10.7071C24.0977 10.3162 24.0977 9.68409 23.7068 9.29317V9.29317Z" fill="white"/>
</g>
<defs>
<clipPath id="clip0_1481_16470">
<rect width="24" height="24" fill="white"/>
</clipPath>
</defs>
</svg>
