<svg width="24" height="24" viewBox="0 0 24 24" fill="none" xmlns="http://www.w3.org/2000/svg">
<path fill-rule="evenodd" clip-rule="evenodd" d="M21.7499 1.83138V21.715C21.7499 22.0059 21.5783 22.2728 21.3042 22.4088C21.0301 22.5449 20.6992 22.5271 20.4429 22.3628L17.6627 20.5806L15.0341 22.3523C14.7188 22.5658 14.2887 22.5459 13.9967 22.3052L11.9999 20.6653L10.0031 22.3052C9.7112 22.5459 9.28108 22.5658 8.96574 22.3523L6.33714 20.5806L3.557 22.3628C3.30071 22.5271 2.96977 22.5449 2.69565 22.4088C2.42154 22.2728 2.24994 22.0059 2.24994 21.715V1.83138C2.24994 0.82046 3.12242 0 4.19994 0H19.7999C20.8775 0 21.7499 0.82046 21.7499 1.83138ZM7.5428 9.9418H16.4571C16.9184 9.9418 17.2928 9.59017 17.2928 9.15692C17.2928 8.72367 16.9184 8.37204 16.4571 8.37204H7.5428C7.08148 8.37204 6.70708 8.72367 6.70708 9.15692C6.70708 9.59017 7.08148 9.9418 7.5428 9.9418ZM7.5428 5.75578H16.4571C16.9184 5.75578 17.2928 5.40415 17.2928 4.9709C17.2928 4.53765 16.9184 4.18602 16.4571 4.18602H7.5428C7.08148 4.18602 6.70708 4.53765 6.70708 4.9709C6.70708 5.40415 7.08148 5.75578 7.5428 5.75578ZM7.5428 14.1278H11.9999C12.4613 14.1278 12.8357 13.7762 12.8357 13.3429C12.8357 12.9097 12.4613 12.5581 11.9999 12.5581H7.5428C7.08148 12.5581 6.70708 12.9097 6.70708 13.3429C6.70708 13.7762 7.08148 14.1278 7.5428 14.1278Z" fill="white"/>
</svg>
