<svg width="24" height="24" viewBox="0 0 24 24" fill="none" xmlns="http://www.w3.org/2000/svg">
<g clip-path="url(#clip0_1481_16527)">
<path d="M16.4651 8.13097e-07H3.06971C2.6665 -0.000292751 2.26719 0.0789088 1.89461 0.233075C1.52204 0.387242 1.18351 0.613348 0.8984 0.898461C0.613287 1.18357 0.38718 1.5221 0.233014 1.89467C0.0788478 2.26725 -0.000353786 2.66656 -6.02221e-05 3.06977V20.9302C-0.000353786 21.3335 0.0788478 21.7328 0.233014 22.1053C0.38718 22.4779 0.613287 22.8164 0.8984 23.1016C1.18351 23.3867 1.52204 23.6128 1.89461 23.7669C2.26719 23.9211 2.6665 24.0003 3.06971 24H13.6632C12.2593 23.147 11.1732 21.8579 10.5707 20.3296C9.96822 18.8013 9.88249 17.1178 10.3266 15.5362C10.7707 13.9547 11.7202 12.5619 13.0302 11.5706C14.3402 10.5794 15.9386 10.0441 17.5813 10.0465C18.2418 10.0447 18.8993 10.1349 19.5348 10.3144V3.06977C19.5351 2.66656 19.4559 2.26725 19.3018 1.89467C19.1476 1.5221 18.9215 1.18357 18.6364 0.898461C18.3513 0.613348 18.0127 0.387242 17.6402 0.233075C17.2676 0.0789088 16.8683 -0.000292751 16.4651 8.13097e-07ZM9.76739 10.6047H4.18599C3.96395 10.6047 3.751 10.5165 3.59399 10.3594C3.43698 10.2024 3.34878 9.98949 3.34878 9.76745C3.34878 9.54541 3.43698 9.33246 3.59399 9.17545C3.751 9.01845 3.96395 8.93024 4.18599 8.93024H9.76739C9.98943 8.93024 10.2024 9.01845 10.3594 9.17545C10.5164 9.33246 10.6046 9.54541 10.6046 9.76745C10.6046 9.98949 10.5164 10.2024 10.3594 10.3594C10.2024 10.5165 9.98943 10.6047 9.76739 10.6047ZM11.9999 6.13954H4.18599C3.96395 6.13954 3.751 6.05133 3.59399 5.89433C3.43698 5.73732 3.34878 5.52437 3.34878 5.30233C3.34878 5.08029 3.43698 4.86734 3.59399 4.71033C3.751 4.55333 3.96395 4.46512 4.18599 4.46512H11.9999C12.222 4.46512 12.4349 4.55333 12.5919 4.71033C12.7489 4.86734 12.8372 5.08029 12.8372 5.30233C12.8372 5.52437 12.7489 5.73732 12.5919 5.89433C12.4349 6.05133 12.222 6.13954 11.9999 6.13954Z" fill="white"/>
<path d="M17.5813 11.1628C16.3118 11.1628 15.0708 11.5393 14.0153 12.2446C12.9598 12.9499 12.1371 13.9523 11.6513 15.1252C11.1655 16.298 11.0384 17.5886 11.286 18.8337C11.5337 20.0787 12.145 21.2224 13.0427 22.1201C13.9403 23.0177 15.084 23.6291 16.3291 23.8767C17.5742 24.1244 18.8647 23.9973 20.0376 23.5115C21.2104 23.0257 22.2129 22.203 22.9182 21.1474C23.6235 20.0919 23.9999 18.8509 23.9999 17.5814C23.9978 15.8798 23.3209 14.2484 22.1177 13.0451C20.9144 11.8418 19.283 11.1649 17.5813 11.1628ZM19.8473 17.0568L17.6148 19.2894C17.5372 19.3673 17.445 19.4291 17.3435 19.4712C17.242 19.5134 17.1331 19.5351 17.0232 19.5351C16.9132 19.5351 16.8044 19.5134 16.7028 19.4712C16.6013 19.4291 16.5091 19.3673 16.4315 19.2894L15.3153 18.1731C15.233 18.0964 15.167 18.004 15.1213 17.9013C15.0755 17.7986 15.0509 17.6877 15.0489 17.5753C15.0469 17.4629 15.0676 17.3513 15.1097 17.247C15.1518 17.1428 15.2145 17.0481 15.294 16.9686C15.3735 16.8891 15.4682 16.8264 15.5724 16.7843C15.6767 16.7422 15.7884 16.7215 15.9008 16.7235C16.0132 16.7255 16.124 16.7501 16.2267 16.7958C16.3294 16.8416 16.4219 16.9076 16.4985 16.9898L17.0232 17.5134L18.6641 15.8735C18.7407 15.7913 18.8332 15.7253 18.9359 15.6796C19.0386 15.6338 19.1494 15.6092 19.2618 15.6072C19.3742 15.6052 19.4859 15.6259 19.5902 15.668C19.6944 15.7101 19.7891 15.7728 19.8686 15.8523C19.9481 15.9318 20.0108 16.0265 20.0529 16.1307C20.095 16.235 20.1157 16.3466 20.1137 16.4591C20.1117 16.5715 20.0871 16.6823 20.0413 16.785C19.9956 16.8877 19.9296 16.9802 19.8473 17.0568Z" fill="white"/>
</g>
<defs>
<clipPath id="clip0_1481_16527">
<rect width="24" height="24" fill="white"/>
</clipPath>
</defs>
</svg>
